<svg width="70" height="70" viewBox="0 0 70 70" fill="none" xmlns="http://www.w3.org/2000/svg">
<circle cx="35" cy="35" r="35" fill="#FBFBFB"/>
<path d="M38.8 33.025C39.8 32.125 40.5 30.825 40.5 29.325C40.5 26.625 38.3 24.325 35.5 24.325C32.8 24.325 30.5 26.525 30.5 29.325C30.5 30.825 31.2 32.125 32.2 33.025V56.125C32.2 56.525 32.5 56.925 33 56.925H38C38.4 56.925 38.8 56.625 38.8 56.125V33.025ZM33.8 55.3251V33.925C34.3 34.125 34.9 34.225 35.5 34.225C36.1 34.225 36.7 34.125 37.2 33.925V55.3251H33.8ZM35.5 25.925C37.4 25.925 38.9 27.425 38.9 29.325C38.9 31.225 37.4 32.725 35.5 32.725C33.6 32.725 32.1 31.225 32.1 29.325C32.1 27.425 33.7 25.925 35.5 25.925Z" fill="#272525"/>
<path d="M50.9 17.025C50.4 17.025 50 17.225 49.7 17.525C49 18.225 49.1 19.325 49.7 19.925C52.2 22.325 53.4999 25.525 53.4999 29.025C53.4999 32.525 52.1 35.725 49.7 38.125C49.4 38.425 49.2 38.925 49.2 39.325C49.2 39.725 49.4 40.225 49.7 40.525C50 40.825 50.4 41.025 50.9 41.025C51.3 41.025 51.8 40.825 52.1 40.525C55.2 37.425 56.9999 33.425 56.9999 29.025C56.9999 24.625 55.3 20.525 52.1 17.525C51.8 17.225 51.4 17.025 50.9 17.025ZM50.9 39.825C50.8 39.825 50.7 39.725 50.6 39.725C50.5 39.625 50.5 39.525 50.5 39.425C50.5 39.325 50.5 39.225 50.6 39.125C53.3 36.525 54.8 32.925 54.8 29.125C54.8 25.325 53.3 21.825 50.6 19.125C50.4 18.925 50.4 18.625 50.6 18.525C50.7 18.425 50.8 18.425 50.9 18.425C51 18.425 51.1 18.425 51.2 18.525C54.1 21.325 55.7 25.125 55.7 29.125C55.7 33.125 54.1 36.925 51.2 39.725C51.2 39.725 51.1 39.825 50.9 39.825Z" fill="#272525"/>
<path d="M42.9 35.525C42.9 35.925 43.1 36.425 43.4 36.725C43.7 37.025 44.1 37.225 44.6 37.225C45 37.225 45.5 37.025 45.8 36.725C47.9 34.725 49.1 31.925 49.1 28.925C49.1 25.925 47.9 23.225 45.8 21.125C45.5 20.825 45 20.625 44.6 20.625C44.1 20.625 43.7 20.825 43.4 21.125C43.1 21.425 42.9 21.925 42.9 22.325C42.9 22.825 43.1 23.225 43.4 23.525C44.9 24.925 45.7 26.825 45.7 28.825C45.7 30.825 44.9 32.725 43.4 34.125C43.1 34.625 42.9 35.125 42.9 35.525ZM44.3 35.225C46 33.625 47 31.425 47 29.025C47 26.625 46.1 24.425 44.3 22.825C44.2 22.725 44.2 22.625 44.2 22.525C44.2 22.425 44.2 22.325 44.3 22.225C44.4 22.125 44.5 22.125 44.6 22.125C44.7 22.125 44.8 22.125 44.9 22.225C46.8 24.025 47.8 26.425 47.8 29.125C47.8 31.725 46.8 34.225 44.9 36.025C44.8 36.125 44.7 36.125 44.6 36.125C44.5 36.125 44.4 36.025 44.3 36.025C44.2 35.925 44.2 35.825 44.2 35.725C44.1 35.425 44.2 35.325 44.3 35.225Z" fill="#272525"/>
<path d="M20.1 41.025C20.5 41.025 21 40.825 21.3 40.525C21.6 40.225 21.8 39.825 21.8 39.325C21.8 38.825 21.6 38.425 21.3 38.125C18.8 35.725 17.5 32.525 17.5 29.025C17.5 25.525 18.9 22.325 21.3 19.925C22 19.225 22 18.225 21.3 17.525C20.6 16.825 19.6 16.825 18.9 17.525C15.8 20.625 14 24.625 14 29.025C14 33.425 15.7 37.525 18.9 40.525C19.3 40.925 19.7 41.025 20.1 41.025ZM20.1 18.325C20.2 18.325 20.3 18.325 20.4 18.425C20.6 18.625 20.6 18.925 20.4 19.025C17.7 21.625 16.2 25.225 16.2 29.025C16.2 32.825 17.7 36.325 20.4 39.025C20.5 39.125 20.5 39.225 20.5 39.325C20.5 39.425 20.5 39.525 20.4 39.625C20.2 39.825 19.9 39.825 19.8 39.625C16.9 36.825 15.3 33.025 15.3 29.025C15.3 25.025 16.9 21.225 19.8 18.425C19.9 18.325 20 18.325 20.1 18.325Z" fill="#272525"/>
<path d="M25.3 36.825C25.6 37.125 26 37.325 26.5 37.325C27 37.325 27.4 37.125 27.7 36.825C28 36.525 28.2 36.125 28.2 35.625C28.2 35.125 28 34.725 27.7 34.425C26.2 33.025 25.4 31.125 25.4 29.125C25.4 27.125 26.2 25.225 27.7 23.825C28 23.525 28.2 23.125 28.2 22.625C28.2 22.125 28 21.725 27.7 21.425C27.4 21.125 27 20.925 26.5 20.925C26 20.925 25.6 21.125 25.3 21.425C23.2 23.425 22 26.225 22 29.225C22 32.025 23.2 34.725 25.3 36.825ZM26.5 22.025C26.6 22.025 26.7 22.125 26.8 22.125C26.9 22.225 26.9 22.325 26.9 22.425C26.9 22.525 26.8 22.625 26.8 22.725C25.1 24.325 24.1 26.525 24.1 28.925C24.1 31.325 25 33.525 26.8 35.125C26.9 35.225 26.9 35.325 26.9 35.425C26.9 35.525 26.9 35.625 26.8 35.725C26.7 35.825 26.6 35.825 26.5 35.825C26.4 35.825 26.3 35.825 26.2 35.725C24.3 33.925 23.3 31.525 23.3 28.825C23.3 26.225 24.3 23.725 26.2 21.925C26.3 22.125 26.4 22.025 26.5 22.025Z" fill="#272525"/>
</svg>
