<svg width="70" height="70" viewBox="0 0 70 70" fill="none" xmlns="http://www.w3.org/2000/svg">
<circle cx="35" cy="35" r="35" fill="#FBFBFB"/>
<path d="M23.641 45.6154H29.282V48.5898H24.1538C23.7436 48.5898 23.3333 48.8974 23.3333 49.4103V52.1795C23.3333 52.5898 23.641 53 24.1538 53H45.1795C45.5897 53 46 52.6923 46 52.1795V49.4103C46 49 45.6923 48.5898 45.1795 48.5898H40.0513V45.6154H45.6923C48.7692 45.6154 51.3333 43.0513 51.3333 39.9744V22.641C51.3333 19.5641 48.7692 17 45.6923 17H23.641C20.5641 17 18 19.5641 18 22.641V39.9744C18 43.1538 20.4615 45.6154 23.641 45.6154ZM19.5385 22.641C19.5385 20.3846 21.3846 18.6411 23.5385 18.6411H45.6923C47.9487 18.6411 49.6923 20.4872 49.6923 22.641V39.9744C49.6923 42.2308 47.8461 43.9744 45.6923 43.9744H23.641C21.3846 43.9744 19.641 42.1282 19.641 39.9744V22.641H19.5385ZM44.4615 51.3589H24.9743V50.1282H44.4615V51.3589ZM30.923 48.5898V45.6154H38.5128V48.5898H30.923Z" fill="#272525"/>
<path d="M23.4359 32.3846V35.359C23.4359 38.4359 26 41 29.0769 41H40.4615C43.5384 41 46.1025 38.4359 46.1025 35.359V32.3846C46.3077 32.282 46.4102 32.0769 46.4102 31.8718C46.4102 31.6667 46.3077 31.4615 46.1025 31.359V27.2564C46.1025 24.1795 43.5384 21.6154 40.4615 21.6154H29.0769C26 21.6154 23.4359 24.1795 23.4359 27.2564V31.4616C23.3333 31.5641 23.2307 31.7693 23.2307 31.9744C23.1282 32.1795 23.2307 32.282 23.4359 32.3846ZM28.9743 23.2564H40.3589C42.6153 23.2564 44.3589 25.1026 44.3589 27.2564V31.2564H41.3846L40.3589 27.5641C40.2564 27.2564 40.0513 27.1539 39.7436 27.1539C39.4359 27.1539 39.2307 27.359 39.1281 27.5641L37.1795 33.3077L35.1282 25.8205C35.0256 25.6154 34.8205 25.4103 34.6154 25.3077C34.4102 25.3077 34.1025 25.4103 33.9999 25.6154L30.6153 31.2564H24.9743V27.2564C24.9743 25 26.8205 23.2564 28.9743 23.2564ZM40.3589 39.4615H28.9743C26.7179 39.4615 24.9743 37.6154 24.9743 35.4615V32.5897H30.923C31.1282 32.5897 31.3333 32.4872 31.4358 32.2821L34.3077 27.5641L36.4615 35.6667C36.5641 35.9744 36.7692 36.0769 37.0769 36.1795C37.3846 36.1795 37.5897 35.9744 37.6923 35.7693L39.641 30.0256L40.2564 32.1795C40.3589 32.4872 40.5641 32.5897 40.8717 32.5897H44.3589V35.4615C44.4615 37.6154 42.6153 39.4615 40.3589 39.4615ZM45.6923 32.2821H40.9743C40.8718 32.2821 40.6666 32.1795 40.6666 32.0769L39.7436 28.8975L37.4871 35.5641C37.4871 35.6667 37.282 35.7693 37.1795 35.7693V35.9743V35.7693C37.0769 35.7693 36.8718 35.6667 36.8718 35.5641L34.5128 26.7436L31.3333 32.0769C31.2307 32.1795 31.1282 32.2821 31.0256 32.2821H23.8461C23.641 32.2821 23.5385 32.1795 23.5385 31.9744C23.5385 31.7693 23.641 31.6667 23.8461 31.6667H30.8205L34.3077 25.8205C34.4102 25.718 34.5128 25.6154 34.6154 25.7179C34.7179 25.7179 34.8205 25.8205 34.923 25.9231L37.282 34.4359L39.5384 27.7692C39.5384 27.6667 39.7435 27.5641 39.8461 27.5641C39.9487 27.5641 40.1538 27.6667 40.1538 27.7692L41.282 31.6667H45.7948C45.9999 31.6667 46.1025 31.7693 46.1025 31.9744C46 32.0769 45.8974 32.2821 45.6923 32.2821Z" fill="#272525"/>
</svg>
