<svg width="70" height="70" viewBox="0 0 70 70" fill="none" xmlns="http://www.w3.org/2000/svg">
<circle cx="35" cy="35" r="35" fill="#FBFBFB"/>
<path d="M44.7 19.209C44.6 19.209 44.6 19.109 44.5 19.009V18.909V19.009C44.6 19.109 44.7 19.209 44.7 19.209L48.5 20.709H48.6H48.5L44.7 19.209Z" fill="#272525"/>
<path d="M15.8 31.009H16.3V28.109C16.3 27.409 16.9 26.909 17.5 26.909H41.2L41.3 26.609L41.7 25.709H17.5C16.1 25.709 15 26.809 15 28.209V32.109C15 32.009 15 31.909 15.1 31.809C15.2 31.309 15.5 31.009 15.8 31.009Z" fill="#272525"/>
<path d="M52.1 25.309H47L46.5 26.609H52.1C52.8 26.609 53.3 27.209 53.3 27.809V31.009H53.9C54.2 31.009 54.5 31.309 54.5 31.609V27.709C54.6 26.409 53.5 25.309 52.1 25.309Z" fill="#272525"/>
<path d="M53.9 31.009H53.3H44.7L46.5 26.509L47 25.209L48.9 20.509C48.9 20.609 48.8 20.609 48.7 20.709H48.6H48.5L44.7 19.209C44.6 19.209 44.6 19.109 44.5 19.009V18.909V18.809L41.9 25.309L41.8 25.609L41.4 26.509L41.3 26.809L39.6 31.009H16.4H16.3H15.8C15.5 31.009 15.2 31.309 15.2 31.609V50.809C15.2 52.209 16.3 53.309 17.7 53.309H52.1C53.5 53.309 54.6 52.209 54.6 50.809V31.609C54.6 31.309 54.3 31.009 53.9 31.009ZM53.3 50.809C53.3 51.509 52.7 52.009 52.1 52.009H17.7C17 52.009 16.5 51.409 16.5 50.809V32.209H39.2L36.5 38.809C36.5 38.809 36.5 38.809 36.5 38.909L37.1 39.109C37.1 39.109 37.1 39.109 37.1 39.009L45.1 19.309L48.3 20.609L40.3 40.309C40.3 40.309 40.3 40.309 40.3 40.409L40.9 40.609C40.9 40.609 40.9 40.609 40.9 40.509L44.3 32.209H53.4V50.809H53.3Z" fill="#272525"/>
<path d="M17.4 28.409C17.4 28.609 17.6 28.709 17.7 28.709H20.4C20.6 28.709 20.7 28.509 20.7 28.409C20.7 28.209 20.5 28.109 20.4 28.109H17.7C17.6 28.109 17.4 28.209 17.4 28.409Z" fill="#272525"/>
<path d="M49.5 28.809H52.2C52.4 28.809 52.5 28.609 52.5 28.509C52.5 28.309 52.3 28.209 52.2 28.209H49.5C49.3 28.209 49.2 28.409 49.2 28.509C49.2 28.609 49.4 28.809 49.5 28.809Z" fill="#272525"/>
<path d="M44.5 18.909V19.009C44.5 19.109 44.6 19.109 44.7 19.209L48.5 20.709H48.6H48.7C48.8 20.709 48.8 20.609 48.9 20.509L49.1 19.909C49.5 18.909 48.9 17.609 47.7 17.209C47.1 17.009 46.5 16.909 46 17.109C45.4 17.309 45 17.709 44.8 18.209L44.6 18.809C44.5 18.909 44.5 18.909 44.5 18.909ZM45.4 18.509C45.5 18.209 45.8 17.909 46.2 17.809C46.6 17.709 47.1 17.709 47.5 17.909C48.4 18.309 48.9 19.109 48.6 19.809L48.5 20.109L45.3 18.809L45.4 18.509Z" fill="#272525"/>
<path d="M36 43.909L36.2 44.009C36.2 44.009 36.3 44.009 36.3 44.109L36.1 45.709C36.1 45.809 36.2 45.809 36.3 45.809L37.2 44.509H37.3L37.5 44.609L40.8 40.709H40.7L40.1 40.509L36.9 39.209L36.3 39.009L36.2 38.909L36 43.909ZM37.4 43.809C37.1 43.709 36.9 43.609 36.7 43.509L36.9 39.709L39.9 40.909L37.4 43.809Z" fill="#272525"/>
</svg>
