<svg width="70" height="70" viewBox="0 0 70 70" fill="none" xmlns="http://www.w3.org/2000/svg">
<circle cx="35" cy="35" r="35" fill="#FBFBFB"/>
<path d="M53.1 34.2H39.5V17H19.9V51.9H10V53.2H60.3V51.9H53V34.2H53.1ZM38.1 51.4H21.1V18.4H38.1V51.4ZM51.8 51.4H39.7V35.5H51.8V51.4Z" fill="#272525"/>
<path d="M28.7 22H24.5V25.6H28.7V22ZM28.1 24.9H25.2V22.6H28.1V24.9Z" fill="#272525"/>
<path d="M34.8 22H30.6V25.6H34.8V22ZM34.1 24.9H31.2V22.6H34.1V24.9Z" fill="#272525"/>
<path d="M34.8 26.6H30.6V30.2H34.8V26.6ZM34.1 29.6H31.2V27.3H34.1V29.6Z" fill="#272525"/>
<path d="M34.8 34.9H30.6V38.5H34.8V34.9ZM34.1 37.9H31.2V35.6H34.1V37.9Z" fill="#272525"/>
<path d="M34.8 43.1H30.6V46.7H34.8V43.1ZM34.1 46.1H31.2V43.8H34.1V46.1Z" fill="#272525"/>
<path d="M28.7 43.1H24.5V46.7H28.7V43.1ZM28.1 46.1H25.2V43.8H28.1V46.1Z" fill="#272525"/>
<path d="M45.5 36.9H41.3V40.5H45.5V36.9ZM44.8 39.9H41.9V37.6H44.8V39.9Z" fill="#272525"/>
<path d="M50.7 42.7H46.5V46.3H50.7V42.7ZM50.1 45.7H47.2V43.4H50.1V45.7Z" fill="#272525"/>
</svg>
