<svg width="70" height="70" viewBox="0 0 70 70" fill="none" xmlns="http://www.w3.org/2000/svg">
<circle cx="35" cy="35" r="35" fill="#FBFBFB"/>
<path d="M48.3338 34.1417C48.4424 34.0332 48.4424 34.0332 48.4424 33.9246L52.5659 21.6624C52.6745 21.5539 52.6745 21.3369 52.6745 21.1198C52.8915 20.2517 52.5659 19.3836 51.9148 18.7325C51.2637 18.0814 50.3956 17.8644 49.5275 18.0814H49.419C49.3105 18.0814 49.202 18.1899 49.0935 18.1899L37.1568 22.0965C36.5057 22.205 36.0716 22.5305 35.6375 22.8561L26.9563 31.5373L19.9028 30.4522H19.7943C19.0347 30.3437 18.2751 30.5607 17.7325 31.1032C16.7558 32.0799 16.7558 33.4906 17.7325 34.4672C17.7325 34.4672 17.7325 34.4672 17.7325 34.5757L20.8795 37.7227L20.0113 38.5908C18.8176 39.7845 18.8176 41.7378 20.0113 42.9314L20.9879 43.9081L20.8795 44.1251C20.7709 44.4506 20.7709 44.7762 20.9879 44.9932L25.4371 49.4424C25.6541 49.6594 25.9797 49.7679 26.3052 49.5509L26.5222 49.4424L27.6074 50.5275C28.15 51.0701 28.9096 51.3956 29.7777 51.3956C30.6458 51.3956 31.4054 51.0701 31.948 50.5275L32.5991 49.8764L35.746 53.0234C35.746 53.0234 35.8546 53.0234 35.8546 53.1319C35.8546 53.1319 35.8546 53.2404 35.9631 53.2404C36.3972 53.6745 37.0483 54 37.6993 54C38.3504 54 39.0015 53.783 39.4356 53.2404C40.0867 52.5893 40.3037 51.7212 40.0867 50.8531V50.7445L39.0015 43.691L47.7913 34.9013C48.0083 34.6842 48.2253 34.4672 48.3338 34.1417ZM18.6006 33.9246C18.6006 33.9246 18.6006 33.8161 18.6006 33.9246C18.4921 33.8161 18.4921 33.8161 18.4921 33.8161C17.9495 33.2735 17.9495 32.4054 18.4921 31.8629C18.8176 31.5373 19.3602 31.4288 19.7943 31.5373C19.9028 31.5373 19.9028 31.5373 20.0113 31.5373L26.1967 32.514L21.639 37.0716L18.6006 33.9246ZM39.11 50.636C39.11 50.7445 39.11 50.8531 39.11 50.9616C39.3271 51.5042 39.2186 52.0467 38.7845 52.4808C38.5675 52.6978 38.1334 52.9148 37.8078 52.9148C37.4823 52.9148 37.0482 52.8063 36.8312 52.4808C36.8312 52.4808 36.8312 52.4808 36.8312 52.3723L36.7227 52.2637C36.7227 52.1552 36.6142 52.1553 36.5057 52.1553L33.4672 49.1168L38.1334 44.4507L39.11 50.636ZM47.0316 33.3821C46.9231 33.5991 46.8146 33.7076 46.7061 33.8161L30.9714 49.5509C30.6458 49.8764 30.3203 49.9849 29.8862 49.9849C29.7777 49.9849 29.5607 49.9849 29.4522 49.8764C29.3436 49.8764 29.1266 49.7679 29.0181 49.6594C28.9096 49.5509 28.8011 49.5509 28.8011 49.4424L27.3904 48.0317C27.2819 47.9231 27.0648 47.8146 26.8478 47.8146C26.7393 47.8146 26.6308 47.8146 26.5222 47.9231L26.3052 48.0317L22.6157 44.3421L22.7242 44.1251C22.8327 43.7995 22.8327 43.474 22.6157 43.257L21.205 41.8463C20.5539 41.1952 20.5539 40.2186 21.205 39.5675L36.9397 23.8327C37.1568 23.6157 37.3738 23.5072 37.6993 23.3987C37.6993 23.3987 37.6993 23.3987 37.8078 23.3987L49.8531 19.4921C49.8531 19.4921 49.8531 19.4921 49.9616 19.4921H50.0701C50.5042 19.3836 50.8297 19.4921 51.1553 19.8176C51.3723 20.0347 51.4808 20.4687 51.4808 20.7943C51.4808 20.9028 51.4808 21.0113 51.3723 21.0113C51.3723 21.0113 51.3723 21.0113 51.3723 21.1198L47.0316 33.3821C47.1402 33.2736 47.0316 33.2736 47.0316 33.3821Z" fill="#272525"/>
<path d="M32.9246 36.095C32.382 35.5524 31.731 35.3354 30.9714 35.3354C30.2117 35.3354 29.5607 35.6609 29.0181 36.095L25.6541 39.459C24.569 40.5441 24.569 42.2804 25.6541 43.3655L27.2818 44.9933C27.8244 45.5358 28.4755 45.7528 29.2351 45.7528C29.9947 45.7528 30.6458 45.4273 31.1884 44.9933L34.5524 41.6293C35.0949 41.0867 35.312 40.4356 35.312 39.676C35.312 38.9164 34.9864 38.2653 34.5524 37.7227L32.9246 36.095ZM33.4672 40.5441L30.1032 43.9081C29.8862 44.1251 29.5606 44.2336 29.2351 44.2336C28.9096 44.2336 28.584 44.1251 28.367 43.9081L26.7393 42.2804C26.3052 41.8463 26.3052 40.9782 26.7393 40.5441L30.1032 37.1801C30.3203 36.9631 30.6458 36.8546 30.9714 36.8546C31.2969 36.8546 31.6224 36.9631 31.8395 37.1801L33.4672 38.8079C33.6842 39.0249 33.7928 39.3505 33.7928 39.676C33.7928 40.0016 33.6842 40.3271 33.4672 40.5441Z" fill="#272525"/>
<path d="M41.1718 27.7393C40.5207 27.4137 39.8696 27.1967 39.11 27.1967C37.9164 27.1967 36.8312 27.6308 36.0716 28.4989C35.2035 29.367 34.7694 30.4522 34.7694 31.5373C34.7694 32.731 35.2035 33.8161 36.0716 34.5758C36.9397 35.4439 38.0249 35.878 39.11 35.878C40.3037 35.878 41.3888 35.4439 42.1484 34.5758C43.0166 33.7076 43.4506 32.6225 43.4506 31.5373C43.4506 30.4522 43.0166 29.2585 42.1484 28.4989C41.9314 28.1733 41.6059 27.8478 41.1718 27.7393ZM41.1718 33.4906C40.6292 34.0332 39.9782 34.3587 39.2185 34.3587C38.4589 34.3587 37.8078 34.0332 37.2653 33.4906C36.7227 32.948 36.3971 32.2969 36.3971 31.5373C36.3971 30.7777 36.7227 30.1266 37.2653 29.584C37.8078 29.0415 38.4589 28.7159 39.2185 28.7159C39.9782 28.7159 40.6292 29.0415 41.1718 29.584C41.7144 30.1266 42.04 30.7777 42.04 31.5373C41.9314 32.2969 41.7144 32.948 41.1718 33.4906Z" fill="#272525"/>
</svg>
