<svg width="70" height="70" viewBox="0 0 70 70" fill="none" xmlns="http://www.w3.org/2000/svg">
<circle cx="35" cy="35" r="35" fill="#FBFBFB"/>
<path d="M19.026 36C18.226 36.2 17.626 36.9 17.626 37.8C17.626 38.2 17.726 38.6 18.026 38.9L17.326 43.3C17.326 43.5 17.326 43.7 17.426 43.8C17.526 43.9 17.726 44 17.926 44H21.026C21.226 44 21.426 43.9 21.526 43.8C21.626 43.7 21.726 43.5 21.726 43.3L20.926 38.6C21.126 38.3 21.226 38 21.226 37.7C21.226 37.1 20.926 36.5 20.326 36.2V33.8L24.326 35.5V45.5C24.326 46.7 25.326 47.7 26.526 47.7H44.926C46.126 47.7 47.126 46.7 47.126 45.5V34.9L56.726 30.7C56.926 30.6 57.126 30.3 57.126 30.1C57.126 29.8 56.926 29.6 56.726 29.5L34.926 22C34.826 22 34.626 22 34.526 22C27.026 24.8 14.726 29.3 13.626 29.4C13.326 29.4 13.026 29.6 13.026 29.9C12.926 30.2 13.126 30.5 13.426 30.6L19.126 33.1V36H19.026ZM18.626 42.7L19.326 38.7C19.326 38.5 19.326 38.2 19.126 38.1C19.026 38 18.926 37.9 18.926 37.7C18.926 37.4 19.126 37.2 19.426 37.2C19.726 37.2 19.926 37.4 19.926 37.7C19.926 37.8 19.826 38 19.826 38C19.726 38.1 19.626 38.3 19.626 38.5L20.226 42.6H18.626V42.7ZM45.926 45.5C45.926 46 45.526 46.4 45.026 46.4H26.626C26.126 46.4 25.726 46 25.726 45.5V36.1L34.926 40.1C35.026 40.1 35.126 40.2 35.226 40.2C35.326 40.2 35.426 40.2 35.526 40.1L46.126 35.5V45.5H45.926ZM15.626 30.3C20.326 28.8 31.726 24.6 34.826 23.4L54.826 30.2L35.126 38.7L22.126 33.1L33.126 31.7C33.626 32 34.326 32.2 35.126 32.2C36.626 32.2 37.826 31.6 37.826 30.8C37.826 30 36.726 29.4 35.126 29.4C33.826 29.4 32.826 29.8 32.526 30.5L19.826 32.2L15.626 30.3ZM33.126 30.8C33.126 30.5 33.926 30.1 35.126 30.1C36.326 30.1 37.126 30.5 37.126 30.8C37.126 31.1 36.326 31.5 35.126 31.5C33.926 31.5 33.126 31.1 33.126 30.8Z" fill="#272525"/>
</svg>
