<svg width="51" height="37" viewBox="0 0 51 37" fill="none" xmlns="http://www.w3.org/2000/svg">
<path d="M0.000488281 18.7173C0.000488281 9.80956 6.42975 4.67709 13.7519 4.67709C17.5045 4.67709 20.6644 6.17021 22.652 8.31267L19.4072 13.2337C17.5932 11.75 15.9264 11.0837 14.1388 11.0837C10.0502 11.0837 7.22256 14.0775 7.22256 18.7173C7.22256 23.342 10.0011 26.3207 13.9048 26.3207C16.4002 26.3207 18.4521 25.0975 20.1623 23.7705L23.0088 28.784C20.1434 31.489 16.4814 32.7273 13.2384 32.7273C5.74266 32.7273 0.000488281 27.5948 0.000488281 18.7173Z" fill="white"/>
<path d="M38.6383 26.0753H35.72V36.1099H30.6611V11.5538H35.72V21.3864H38.0304L44.035 11.5538H50.2075L42.6344 23.174L51.0003 36.1099H44.9618L38.6383 26.0753Z" fill="white"/>
<path d="M10.1748 1C10.6958 1 11.1186 1.42283 11.1186 1.94381C11.1186 2.4648 10.6958 2.88763 10.1748 2.88763C9.65379 2.88763 9.23096 2.4648 9.23096 1.94381C9.23096 1.42283 9.65379 1 10.1748 1ZM37.3566 1.94381C37.3566 2.4648 37.7795 2.88763 38.3005 2.88763C38.8214 2.88763 39.2443 2.4648 39.2443 1.94381C39.2443 1.42283 38.8214 1 38.3005 1C37.7795 1 37.3566 1.42283 37.3566 1.94381ZM37.3566 9.49433C37.3566 10.0153 37.7795 10.4381 38.3005 10.4381C38.8214 10.4381 39.2443 10.0153 39.2443 9.49433C39.2443 8.97335 38.8214 8.55052 38.3005 8.55052C37.7795 8.55052 37.3566 8.97335 37.3566 9.49433ZM27.3522 9.49433C27.3522 10.0153 27.775 10.4381 28.296 10.4381C28.817 10.4381 29.2398 10.0153 29.2398 9.49433C29.2398 8.97335 28.817 8.55052 28.296 8.55052C27.775 8.55052 27.3522 8.97335 27.3522 9.49433ZM27.3522 33.656C27.3522 34.177 27.775 34.5998 28.296 34.5998C28.817 34.5998 29.2398 34.177 29.2398 33.656C29.2398 33.135 28.817 32.7122 28.296 32.7122C27.775 32.7122 27.3522 33.135 27.3522 33.656ZM19.0466 33.656C19.0466 34.177 19.4695 34.5998 19.9904 34.5998C20.5114 34.5998 20.9343 34.177 20.9343 33.656C20.9343 33.135 20.5114 32.7122 19.9904 32.7122C19.4695 32.7122 19.0466 33.135 19.0466 33.656ZM11.1186 1.94381H37.3566H11.1186ZM38.3005 2.88763V8.55052V2.88763ZM37.3566 9.49433L29.4286 9.48678L37.3566 9.49433ZM28.296 10.4381V32.7122V10.4381ZM27.3522 33.656H20.9343H27.3522Z" fill="white"/>
<path d="M27.3522 33.656H20.9343M10.1748 1C10.6958 1 11.1186 1.42283 11.1186 1.94381C11.1186 2.4648 10.6958 2.88763 10.1748 2.88763C9.65379 2.88763 9.23096 2.4648 9.23096 1.94381C9.23096 1.42283 9.65379 1 10.1748 1ZM37.3566 1.94381C37.3566 2.4648 37.7795 2.88763 38.3005 2.88763C38.8214 2.88763 39.2443 2.4648 39.2443 1.94381C39.2443 1.42283 38.8214 1 38.3005 1C37.7795 1 37.3566 1.42283 37.3566 1.94381ZM37.3566 9.49433C37.3566 10.0153 37.7795 10.4381 38.3005 10.4381C38.8214 10.4381 39.2443 10.0153 39.2443 9.49433C39.2443 8.97335 38.8214 8.55052 38.3005 8.55052C37.7795 8.55052 37.3566 8.97335 37.3566 9.49433ZM27.3522 9.49433C27.3522 10.0153 27.775 10.4381 28.296 10.4381C28.817 10.4381 29.2398 10.0153 29.2398 9.49433C29.2398 8.97335 28.817 8.55052 28.296 8.55052C27.775 8.55052 27.3522 8.97335 27.3522 9.49433ZM27.3522 33.656C27.3522 34.177 27.775 34.5998 28.296 34.5998C28.817 34.5998 29.2398 34.177 29.2398 33.656C29.2398 33.135 28.817 32.7122 28.296 32.7122C27.775 32.7122 27.3522 33.135 27.3522 33.656ZM19.0466 33.656C19.0466 34.177 19.4695 34.5998 19.9904 34.5998C20.5114 34.5998 20.9343 34.177 20.9343 33.656C20.9343 33.135 20.5114 32.7122 19.9904 32.7122C19.4695 32.7122 19.0466 33.135 19.0466 33.656ZM11.1186 1.94381H37.3566H11.1186ZM38.3005 2.88763V8.55052V2.88763ZM37.3566 9.49433L29.4286 9.48678L37.3566 9.49433ZM28.296 10.4381V32.7122V10.4381Z" stroke="white" stroke-width="0.5" stroke-miterlimit="10"/>
</svg>
