<svg width="105" height="105" viewBox="0 0 105 105" fill="none" xmlns="http://www.w3.org/2000/svg">
<g filter="url(#filter0_d_250_3)">
<rect x="10" y="9" width="85" height="85" rx="5" fill="white"/>
</g>
<path d="M42.5728 48.0816L33.9728 54.9816C33.7728 55.0816 33.6728 55.2816 33.6728 55.5816V63.5816C33.6728 63.9816 33.9728 64.2816 34.3728 64.2816H42.9728C43.3728 64.2816 43.6728 63.9816 43.6728 63.5816V48.6816C43.6728 48.3816 43.4728 48.1816 43.2728 47.9816C43.1728 47.8816 42.8728 47.9816 42.5728 48.0816ZM42.3728 62.8816H35.2728V55.9816L42.3728 50.2816V62.8816Z" fill="#272525"/>
<path d="M48.7728 43.6817L46.5728 45.0817C46.3728 45.1817 46.2728 45.4817 46.2728 45.6817V63.5817C46.2728 63.9817 46.5728 64.2817 46.9728 64.2817H55.5728C55.9728 64.2817 56.2728 63.9817 56.2728 63.5817V50.8817C56.2728 50.6817 56.1728 50.4817 56.0728 50.3817L49.6728 43.7817C49.4728 43.4817 49.0728 43.4817 48.7728 43.6817ZM54.7728 62.8817H47.6728V46.0817L49.0728 45.2817L54.7728 51.2817V62.8817V62.8817Z" fill="#272525"/>
<path d="M64.4728 45.2817L58.8728 50.8817C58.7728 50.9817 58.6728 51.0817 58.6728 51.2817V63.8817C58.6728 64.1817 58.8728 64.3817 59.1728 64.3817H64.7728C65.0728 64.3817 65.2728 64.1817 65.2728 63.8817V45.6816C65.2728 45.4816 65.1728 45.2816 64.9728 45.1816C64.8728 45.0816 64.5728 45.0817 64.4728 45.2817ZM64.2728 63.2817H59.6728V51.4816L64.2728 46.8817V63.2817Z" fill="#272525"/>
<path d="M69.2728 37.1817C65.2728 40.1817 61.1728 43.1817 57.1728 46.0817C54.7728 43.5817 52.4728 41.1817 50.0728 38.6817C49.8728 38.3817 49.3728 38.3817 49.0728 38.5817C43.8728 42.1817 38.5728 45.8817 33.3728 49.4817C32.4728 50.0817 33.3728 51.5817 34.2728 50.9817C39.2728 47.4817 44.3728 43.9817 49.3728 40.4817C51.7728 42.9817 54.0728 45.3817 56.4728 47.8817C56.6728 48.1817 57.1728 48.2817 57.4728 47.9817C61.6728 44.8817 65.9728 41.7817 70.1728 38.6817C71.0728 37.9817 70.1728 36.4817 69.2728 37.1817Z" fill="#272525"/>
<defs>
<filter id="filter0_d_250_3" x="0" y="0" width="105" height="105" filterUnits="userSpaceOnUse" color-interpolation-filters="sRGB">
<feFlood flood-opacity="0" result="BackgroundImageFix"/>
<feColorMatrix in="SourceAlpha" type="matrix" values="0 0 0 0 0 0 0 0 0 0 0 0 0 0 0 0 0 0 127 0" result="hardAlpha"/>
<feOffset dy="1"/>
<feGaussianBlur stdDeviation="5"/>
<feComposite in2="hardAlpha" operator="out"/>
<feColorMatrix type="matrix" values="0 0 0 0 0 0 0 0 0 0 0 0 0 0 0 0 0 0 0.1 0"/>
<feBlend mode="normal" in2="BackgroundImageFix" result="effect1_dropShadow_250_3"/>
<feBlend mode="normal" in="SourceGraphic" in2="effect1_dropShadow_250_3" result="shape"/>
</filter>
</defs>
</svg>
