<svg width="105" height="105" viewBox="0 0 105 105" fill="none" xmlns="http://www.w3.org/2000/svg">
<g filter="url(#filter0_d_250_2)">
<rect x="10" y="9" width="85" height="85" rx="5" fill="white"/>
</g>
<path d="M59.2376 38.6774C59.1063 38.6774 58.8436 38.6774 58.7123 38.6774C57.3989 38.1521 55.1662 37.7581 52.4081 39.8595L51.4887 40.7789C48.2053 38.5461 45.4471 39.8595 44.7905 40.3849L41.507 37.1014L31 47.6084L34.9401 51.5486C34.9401 53.3873 35.5968 55.0946 36.7789 56.9334C37.3042 57.7214 37.8296 58.3781 38.4863 59.0348C39.2743 59.8228 40.1936 60.7422 40.9817 61.5302C40.0623 62.8436 40.4563 63.8943 41.3757 64.945C42.295 65.9957 43.2144 66.127 44.5278 65.733C45.4472 67.1777 46.3665 67.8344 47.2859 67.8344C47.6799 68.2284 48.0739 68.6224 48.4679 69.0165C49.65 70.0672 51.3574 70.3298 52.8021 69.5418C53.4588 69.1478 53.4587 68.8851 53.8528 68.3598C56.2168 70.3298 57.7929 70.3298 59.6316 67.5717C60.945 67.9658 61.8644 67.8344 62.7837 66.7837C63.8344 65.733 64.0971 64.551 63.0464 63.2376L62.7837 62.8436C63.5718 62.8436 64.2284 62.3182 64.4911 61.9242C65.4105 60.7422 65.4105 59.5601 64.3598 58.2468C64.7538 57.8527 65.2791 57.3274 65.6732 56.9334C66.3298 56.2767 66.8552 55.62 67.3806 54.832C68.5626 52.9933 69.2193 51.1545 69.2193 49.4471L73.1594 45.507L62.6524 35L59.2376 38.6774ZM39.143 57.4588C37.9609 56.1454 37.0416 54.832 36.6475 53.1246C36.5162 52.7306 36.5162 52.4679 36.5162 52.0739C36.5162 51.8112 36.5162 51.4172 36.5162 51.1545L32.4447 47.083L41.113 38.4148L43.8711 41.1728L44.0024 41.3042L45.3158 41.4355L45.4471 41.1728C45.9725 40.7788 48.2053 39.5968 51.0947 41.8295L55.0348 45.7697C55.1662 45.901 55.2975 46.1637 55.2975 46.5577C55.2975 46.8204 55.1662 47.0831 55.0348 47.3457L54.7721 47.6084C54.3781 48.0024 53.7214 48.0024 53.3274 47.6084L49.3873 43.6683L48.4679 44.325L49.5186 45.6384L50.044 46.1637C49.65 46.5577 49.1246 47.0831 48.7306 47.4771C48.5993 47.6084 48.5993 47.7397 48.4679 47.8711C48.4679 47.8711 48.4679 47.8711 48.3366 48.0024C45.7098 50.6292 42.9517 53.3873 40.325 56.014C39.6683 56.408 39.2743 56.9334 39.143 57.4588ZM52.014 68.3598C51.7514 68.6224 51.3574 68.8851 50.9634 68.7538C50.3067 68.7538 49.9126 68.2284 49.5186 67.9658C49.3873 67.8344 49.1246 67.5717 48.9933 67.4404C49.3873 67.1777 49.9127 66.9151 50.438 66.5211C50.7007 67.0464 50.832 67.3091 51.4887 67.7031C51.7514 67.8344 52.0141 67.9657 52.2767 68.0971C52.1454 67.9657 52.1454 68.2284 52.014 68.3598ZM57.6616 67.7031C57.0049 68.3598 56.3482 68.4911 55.5602 67.7031C55.4288 67.5717 55.2975 67.4404 55.1661 67.3091C55.2975 67.1777 55.5602 67.0464 55.6915 66.915C56.2169 66.3897 56.7422 65.9957 57.1362 65.4703L57.2675 65.6017C58.1869 66.3897 58.3183 67.0464 57.6616 67.7031ZM61.8644 65.6017C61.2077 66.3897 60.2883 66.3897 59.5003 65.6017C59.1063 65.2077 58.7123 64.8137 58.3183 64.4196C58.975 63.763 59.6316 63.1063 60.2883 62.4496C60.6824 62.8436 61.0764 63.2376 61.4704 63.6316C62.2584 64.2883 62.2584 64.945 61.8644 65.6017ZM63.5718 60.7422C63.3091 61.5302 62.3897 61.9242 61.6017 61.5302C61.4704 61.5302 61.4704 61.3989 61.339 61.3989C61.9957 60.7422 62.6524 60.0855 63.3091 59.4288C63.5718 59.8228 63.8345 60.2168 63.5718 60.7422ZM71.846 45.113L67.7746 49.1845C67.7746 49.4471 67.7746 49.8412 67.7746 50.1038C67.7746 50.4979 67.6432 50.8918 67.6432 51.1545C67.2492 52.7306 66.3298 54.1753 65.1478 55.4887C63.4404 57.1961 61.733 58.9035 60.157 60.6109C58.4496 62.3182 56.6109 64.157 54.7721 65.8644C54.5095 66.127 53.9841 66.6524 53.3274 66.6524C52.9334 66.6524 52.5394 66.521 52.2767 66.2584C52.0141 65.9957 51.8827 65.339 52.014 64.945C52.1454 64.551 52.5394 64.157 52.8021 63.763C53.5901 62.9749 54.3781 62.1869 55.2975 61.2675C55.6915 60.8735 56.0855 60.4795 56.4795 60.0855C56.8735 59.6915 58.0556 58.7721 57.3989 58.1154C56.7422 57.5901 55.8228 58.6408 55.5602 59.0348C55.1662 59.4288 54.7722 59.8228 54.3781 60.2168C52.5394 62.0555 50.7007 63.8943 48.7306 65.733C47.8112 66.521 47.1545 66.521 46.6292 65.733C46.1038 65.0763 46.2352 64.4196 47.0232 63.6316C49.1246 61.5302 51.226 59.4288 53.4588 57.1961C53.7214 56.9334 53.9841 56.6707 54.1154 56.2767C54.1154 55.8827 53.9841 55.62 53.7215 55.62C53.1961 55.4887 52.9334 55.7514 52.5394 56.1454C50.044 58.6408 47.5486 61.1362 45.0532 63.6316C44.2651 64.4196 43.3457 64.4196 42.689 63.6316C42.295 62.9749 42.4264 62.3182 43.0831 61.5302C45.5785 59.0348 48.2052 56.408 50.7007 53.9126C51.0947 53.5186 51.4887 52.9933 50.9634 52.5992C50.438 52.2052 50.044 52.5993 49.65 52.8619C47.6799 54.832 45.7098 56.8021 43.7398 58.7721C43.4771 59.0348 43.2144 59.2975 42.8204 59.4288C42.1637 59.8228 41.2443 59.4288 40.8503 58.6408C40.5877 57.8528 40.9817 57.3274 41.3757 56.9334C44.6591 53.6499 47.9426 50.4978 51.0947 47.2144L52.4081 48.5278C52.8021 48.9218 53.4588 49.1845 54.1154 49.1845C54.7721 49.1845 55.2975 48.9218 55.6915 48.5278L55.9542 48.2651C56.3482 47.8711 56.6109 47.2144 56.6109 46.5577C56.6109 46.0324 56.3482 45.3757 55.9542 44.9817L53.0648 41.9609L52.5394 41.4355L53.3274 40.6475C54.5095 39.7281 55.6915 39.3341 56.4795 39.3341C58.1869 39.2028 59.6316 39.9908 59.6316 39.9908L60.551 39.0715L63.3091 36.3134L71.846 45.113Z" fill="#272525"/>
<defs>
<filter id="filter0_d_250_2" x="0" y="0" width="105" height="105" filterUnits="userSpaceOnUse" color-interpolation-filters="sRGB">
<feFlood flood-opacity="0" result="BackgroundImageFix"/>
<feColorMatrix in="SourceAlpha" type="matrix" values="0 0 0 0 0 0 0 0 0 0 0 0 0 0 0 0 0 0 127 0" result="hardAlpha"/>
<feOffset dy="1"/>
<feGaussianBlur stdDeviation="5"/>
<feComposite in2="hardAlpha" operator="out"/>
<feColorMatrix type="matrix" values="0 0 0 0 0 0 0 0 0 0 0 0 0 0 0 0 0 0 0.1 0"/>
<feBlend mode="normal" in2="BackgroundImageFix" result="effect1_dropShadow_250_2"/>
<feBlend mode="normal" in="SourceGraphic" in2="effect1_dropShadow_250_2" result="shape"/>
</filter>
</defs>
</svg>
