<svg width="105" height="105" viewBox="0 0 105 105" fill="none" xmlns="http://www.w3.org/2000/svg">
<g filter="url(#filter0_d_250_7)">
<rect x="10" y="9" width="85" height="85" rx="5" fill="white"/>
</g>
<path d="M48.1526 46.3569C48.1526 46.564 48.3597 46.7711 48.5668 46.7711C48.7738 46.8746 48.9809 46.7711 49.188 46.6675L50.7412 45.4251V53.1907H48.6703C48.4632 53.1907 48.3597 53.2942 48.2561 53.3978C48.1526 53.5013 48.049 53.7084 48.049 53.8119V55.7793C48.049 55.9864 48.1526 56.0899 48.2561 56.1934C48.3597 56.297 48.5668 56.4005 48.6703 56.4005H56.8501C57.0572 56.4005 57.1608 56.297 57.2643 56.1934C57.3678 56.0899 57.4714 55.8828 57.4714 55.7793V53.8119C57.4714 53.6049 57.3678 53.5013 57.2643 53.3978C57.1608 53.2942 56.9537 53.1907 56.8501 53.1907H54.8828V41.3869C54.8828 41.1798 54.7793 41.0763 54.6757 40.9727C54.5722 40.8692 54.3651 40.7657 54.2616 40.7657H51.673C51.5695 40.7657 51.466 40.7656 51.3624 40.8692L47.842 43.3542C47.6349 43.4578 47.5313 43.7684 47.6349 43.9754L48.1526 46.3569ZM51.7766 41.4904H54.2616V53.9155H56.8501V55.7793H48.7739V53.9155H51.3624V44.079L48.7739 46.1498L48.2561 43.9754L51.7766 41.4904Z" fill="#272525"/>
<path d="M32 64.3733C32.1035 64.5804 32.3106 64.7874 32.5177 64.7874L37.6948 65.2016L37.9019 69.9646C37.9019 70.1717 38.0054 70.3787 38.2125 70.4823C38.3161 70.4823 38.3161 70.4823 38.4196 70.4823C38.5232 70.4823 38.7302 70.3787 38.8338 70.3787L48.4632 61.7847L48.8774 63.0272C49.0845 63.6485 49.6022 63.9591 50.1199 63.9591C50.5341 63.9591 50.9482 63.752 51.2589 63.3379L52.9155 61.267C53.0191 61.0599 53.2262 60.9564 53.4332 60.9564C53.5368 60.9564 53.7439 60.9564 53.951 61.1635L55.9183 62.9237C56.2289 63.2343 56.5395 63.3379 56.9537 63.3379C57.1608 63.3379 57.4714 63.2343 57.6785 63.1308L64.6158 70.7929C64.7193 70.8964 64.9264 71 65.03 71C65.1335 71 65.1335 71 65.2371 71C65.4441 70.8965 65.6512 70.6894 65.6512 70.4823L66.1689 65.8229L71.3461 65.3051C71.5532 65.3051 71.7602 65.0981 71.8638 64.891C71.9673 64.6839 71.8637 64.4768 71.7602 64.2697L63.1662 55.0545C63.1662 55.0545 63.1662 55.0545 63.1662 54.9509C63.2697 54.7438 63.4768 54.6403 63.6839 54.6403L66.2725 54.0191C66.7902 53.9155 67.2044 53.6049 67.3079 53.0872C67.4114 52.673 67.3079 52.1553 66.8937 51.7411L65.03 49.7738C64.9264 49.6703 64.8229 49.4632 64.8229 49.2561C64.8229 49.049 64.9264 48.8419 65.03 48.7384L67.1008 46.9782C67.515 46.564 67.7221 46.1498 67.6185 45.6321C67.515 45.218 67.2043 44.8038 66.5831 44.5967L63.9945 43.7684C63.7874 43.6648 63.6839 43.5613 63.5804 43.3542C63.4768 43.1471 63.4768 42.94 63.5804 42.733L64.5122 40.248C64.7193 39.7302 64.7194 39.3161 64.4087 38.9019C64.0981 38.4877 63.6839 38.2806 63.0627 38.3842L60.3706 38.7983C59.9564 38.9019 59.5422 38.5913 59.5422 38.1771L59.2316 35.485C59.1281 34.5531 58.5068 34.2425 57.9891 34.2425C57.6785 34.2425 57.3679 34.346 57.0572 34.5531L54.8828 36.2098C54.5722 36.4169 54.0545 36.4169 53.8474 36.0027L52.3978 33.7248C52.0872 33.3106 51.673 33 51.2589 33C50.7411 33 50.327 33.3106 50.0163 33.8283L48.8774 36.2098C48.6703 36.624 48.2561 36.7275 47.842 36.5204L45.4605 35.2779C44.8392 34.9673 44.218 34.9673 43.8038 35.3815C43.5967 35.5885 43.3896 35.8992 43.3896 36.5204L43.4932 39.2125C43.4932 39.4196 43.3896 39.6267 43.2861 39.7302C43.1826 39.8338 42.9755 39.9373 42.7684 39.9373H40.0763C39.5586 39.9373 39.0409 40.1444 38.8338 40.5586C38.6267 40.9727 38.6267 41.4904 38.9373 42.0082L40.2834 44.3896C40.3869 44.5967 40.3869 44.8038 40.3869 45.0109C40.2834 45.218 40.1798 45.3215 39.9728 45.4251L37.5913 46.6676C37.0736 46.9782 36.7629 47.3924 36.7629 47.8065C36.7629 48.2207 36.97 48.7384 37.4878 49.049L39.7657 50.4986C39.9727 50.6022 40.0763 50.8093 40.0763 51.0163C40.0763 51.2234 40.0763 51.4305 39.9728 51.534L38.4196 53.7084C38.109 54.1226 38.0054 54.6403 38.2125 55.0545C38.4196 55.4686 38.8338 55.7793 39.4551 55.7793L40.4905 55.8828L32 63.5449C32 63.9591 32 64.1662 32 64.3733ZM63.2698 59.8174L63.3733 59.7139C63.4768 59.6103 63.5804 59.6103 63.6839 59.5068C63.891 59.1962 63.9946 58.6785 63.891 58.2643L63.6839 57.4359L70.1035 64.5804L65.6512 64.9945C65.3406 64.9945 65.1335 65.2016 65.1335 65.5122L64.7193 69.3433L58.2997 62.3024L58.8174 59.921C58.8174 59.8174 58.921 59.7139 58.921 59.7139C59.1281 59.6103 59.2316 59.6103 59.4387 59.6103L62.0272 60.3351C62.4414 60.2316 62.9591 60.128 63.2698 59.8174ZM39.7657 54.8474C39.5586 54.8474 39.5586 54.7439 39.4551 54.7439C39.4551 54.7439 39.4551 54.6403 39.5586 54.5368L41.1117 52.3624C41.2153 52.2588 41.2153 52.1553 41.3188 52.0518C41.4223 51.7411 41.5259 51.327 41.4223 50.9128C41.3188 50.3951 41.0082 49.9809 40.594 49.6703L38.3161 48.2207C38.2125 48.2207 38.2125 48.1171 38.2125 48.1171V48.0136C38.2125 48.0136 38.2125 47.9101 38.4196 47.8065L39.6621 47.1853L40.8011 46.564C41.3188 46.3569 41.6294 45.9428 41.733 45.4251C41.8365 44.9074 41.8365 44.4932 41.6294 43.9754C41.6294 43.9754 41.6294 43.9755 41.6294 43.8719L40.2834 41.4904C40.1798 41.3869 40.1798 41.2834 40.1798 41.2834C40.1798 41.2834 40.2834 41.2834 40.3869 41.2834H41.1117H43.1826C43.7003 41.2834 44.218 41.0763 44.5286 40.6621C44.7357 40.455 44.8392 40.2479 44.9428 40.0409C44.9428 40.0409 44.9428 40.0409 44.9428 39.9373C45.0463 39.7302 45.0463 39.5232 45.0463 39.2125L44.9428 36.5204C44.9428 36.3133 44.9428 36.2098 45.0463 36.2098C45.0463 36.2098 45.1499 36.2098 45.2534 36.3133L47.2207 37.3488L47.6349 37.5559H47.7384C47.9455 37.6594 48.2561 37.7629 48.5668 37.7629C49.0845 37.7629 49.4986 37.5558 49.8093 37.2452C50.0164 37.0381 50.1199 36.9346 50.2234 36.7275L51.3624 34.346C51.3624 34.346 51.3624 34.2425 51.466 34.2425C51.466 34.1389 51.5695 34.1389 51.5695 34.1389L51.673 34.2425L52.7084 35.7956L53.2262 36.5204C53.3297 36.7275 53.5368 36.831 53.6403 36.9346C53.9509 37.1417 54.3651 37.3488 54.7793 37.3488C54.8828 37.3488 54.9864 37.3488 55.0899 37.3488C55.4006 37.2452 55.6076 37.1417 55.8147 37.0381L56.6431 36.4169L57.8855 35.485C57.9891 35.3815 58.0926 35.3815 58.0926 35.3815C58.0926 35.3815 58.1962 35.485 58.1962 35.6921L58.5068 38.3842C58.5068 38.7983 58.7139 39.109 58.921 39.4196C59.0245 39.5231 59.1281 39.6267 59.2316 39.7302C59.6458 40.0409 60.1635 40.1444 60.6812 40.0409L63.3733 39.6267C63.4768 39.6267 63.6839 39.6267 63.6839 39.6267C63.6839 39.6267 63.6839 39.7302 63.6839 39.8338L62.6485 42.3188C62.6485 42.4223 62.6485 42.4223 62.5449 42.5259C62.4414 42.8365 62.4414 43.2507 62.5449 43.5613C62.5449 43.6648 62.545 43.6648 62.6485 43.7684C62.6485 43.8719 62.752 43.9754 62.752 43.9754C62.9591 44.2861 63.2697 44.5967 63.6839 44.7003L65.5477 45.3215L66.1689 45.5286C66.2725 45.5286 66.376 45.6321 66.376 45.6321C66.376 45.6321 66.376 45.7357 66.2725 45.7357L66.1689 45.8392L64.9264 46.9782L64.2016 47.5994C63.7875 47.9101 63.5804 48.4278 63.5804 48.9455C63.5804 49.4632 63.7875 49.9809 64.0981 50.2915L65.9619 52.2588C66.0654 52.3624 66.0654 52.4659 66.0654 52.4659C66.0654 52.4659 65.9619 52.5695 65.8583 52.5695L63.2698 53.1907C62.752 53.2943 62.3379 53.6049 62.0272 54.0191C61.9237 54.1226 61.9237 54.2261 61.9237 54.3297C61.9237 54.4332 61.8202 54.5368 61.8202 54.6403C61.6131 55.0545 61.5095 55.3651 61.6131 55.6757L62.3379 58.2643L59.7493 57.643C59.6458 57.643 59.5422 57.643 59.4387 57.643C59.3351 57.643 59.3352 57.643 59.2316 57.643C59.1281 57.643 59.0245 57.643 58.921 57.643C58.921 57.643 58.921 57.643 58.8174 57.643C58.7139 57.643 58.6104 57.643 58.6104 57.7466H58.5068C58.5068 57.7466 58.4033 57.7466 58.4033 57.8501C58.2997 57.8501 58.2997 57.9536 58.1962 57.9536C58.1962 57.9536 58.1962 57.9536 58.0926 57.9536C57.9891 58.0572 57.8855 58.0572 57.8855 58.1607C57.4714 58.4714 57.1608 58.8855 57.0572 59.2997L56.6431 61.5776C56.6431 61.6812 56.6431 61.7847 56.6431 61.8883C56.6431 61.8883 56.6431 61.8883 56.5395 61.8883C56.5395 61.8883 56.436 61.8883 56.436 61.7847L54.4687 60.0245C54.3651 59.9209 54.158 59.8174 53.951 59.7139C53.7439 59.6103 53.4332 59.5068 53.2262 59.5068C52.9155 59.5068 52.6049 59.6103 52.2943 59.7139C52.1907 59.8174 52.0872 59.8174 51.9837 59.921C51.8801 60.0245 51.7766 60.128 51.673 60.2316L50.0163 62.3024C50.0163 62.3024 50.0164 62.3024 49.9128 62.406C49.9128 62.406 49.9128 62.406 49.8093 62.5095H49.7057C49.7057 62.5095 49.6022 62.406 49.6022 62.3024L48.9809 60.6457C49.188 60.4387 49.188 60.2316 49.0845 60.0245V59.921C48.8774 59.4033 48.5668 59.0926 48.049 58.8855C47.842 58.782 47.7384 58.782 47.5313 58.782C47.4278 58.782 47.3243 58.6785 47.2207 58.6785C47.1172 58.6785 47.0136 58.6785 46.9101 58.6785C46.8065 58.6785 46.703 58.6785 46.4959 58.6785C46.3924 58.6785 46.2888 58.782 46.1853 58.782L43.8038 59.8174C43.8038 59.8174 43.8038 59.8174 43.8038 59.7139L44.1144 57.0218C44.218 56.5041 44.0109 55.9864 43.7003 55.5722C43.3897 55.158 42.9755 54.9509 42.4578 54.9509C42.3542 54.9509 42.3542 54.9509 42.2507 54.8474C42.1471 54.8474 42.0436 54.8474 41.9401 54.7439L41.0082 54.6403L39.7657 54.8474ZM42.1472 56.4005L42.7684 56.297C42.8719 56.297 42.8719 56.4005 42.8719 56.4005C42.9755 56.6076 43.079 56.7111 42.9755 56.9182L42.6649 59.6103C42.5613 60.128 42.6649 60.5422 42.9755 60.7493C43.1826 60.9564 43.3897 61.0599 43.7003 61.1635C44.0109 61.3705 44.5286 61.3705 44.9428 61.1635L47.4278 60.128C47.5313 60.128 47.6349 60.0245 47.7384 60.0245C47.842 60.128 47.9455 60.2316 48.049 60.4387V60.5422L39.0409 68.6185L38.9373 64.5804C38.9373 64.2697 38.7303 64.0627 38.4196 64.0627L34.0708 63.752L42.1472 56.4005Z" fill="#272525"/>
<defs>
<filter id="filter0_d_250_7" x="0" y="0" width="105" height="105" filterUnits="userSpaceOnUse" color-interpolation-filters="sRGB">
<feFlood flood-opacity="0" result="BackgroundImageFix"/>
<feColorMatrix in="SourceAlpha" type="matrix" values="0 0 0 0 0 0 0 0 0 0 0 0 0 0 0 0 0 0 127 0" result="hardAlpha"/>
<feOffset dy="1"/>
<feGaussianBlur stdDeviation="5"/>
<feComposite in2="hardAlpha" operator="out"/>
<feColorMatrix type="matrix" values="0 0 0 0 0 0 0 0 0 0 0 0 0 0 0 0 0 0 0.1 0"/>
<feBlend mode="normal" in2="BackgroundImageFix" result="effect1_dropShadow_250_7"/>
<feBlend mode="normal" in="SourceGraphic" in2="effect1_dropShadow_250_7" result="shape"/>
</filter>
</defs>
</svg>
