<svg width="105" height="105" viewBox="0 0 105 105" fill="none" xmlns="http://www.w3.org/2000/svg">
<g filter="url(#filter0_d_250_8)">
<rect x="10" y="9" width="85" height="85" rx="5" fill="white"/>
</g>
<path d="M38.4239 48.4473C37.2457 49.6255 36.5912 51.1964 36.5912 52.8982C36.5912 56.4328 39.4712 59.1818 42.8748 59.1818C44.5766 59.1818 46.1476 58.5273 47.3258 57.3491C47.9803 56.6945 48.5039 55.9091 48.7657 55.1237H54.6566C55.573 57.4801 57.9294 59.1818 60.5475 59.1818C62.2494 59.1818 63.8203 58.5273 64.9985 57.3491C66.1767 56.1709 66.8312 54.6 66.8312 52.8982C66.8312 49.3637 63.9512 46.6146 60.5475 46.6146C59.5003 46.6146 58.5839 46.8764 57.6676 47.2691C57.2748 46.7455 56.8821 46.2218 56.3585 45.6982C56.0967 45.4364 55.573 45.4364 55.3112 45.6982C55.3112 45.6982 51.7767 48.3164 48.5039 45.96L46.8021 43.2109C47.9803 44.6509 49.6821 45.5673 51.7767 45.5673C53.4785 45.5673 55.0494 44.9128 56.2276 43.7346C57.4057 42.5564 58.0603 40.9854 58.0603 39.2836C58.0603 35.7491 55.1803 33 51.7767 33C50.0748 33 48.5039 33.6546 47.3258 34.8328C46.1476 36.0109 45.493 37.5818 45.493 39.2836C45.493 40.3309 45.7548 41.2473 46.1475 42.1636L44.053 38.8909C43.3985 37.8436 42.0894 37.5818 41.0421 38.2364C39.9948 38.8909 39.733 40.2 40.3875 41.2473L44.053 46.8763C43.7912 46.8763 43.3985 46.7455 43.1366 46.7455C41.3039 46.6146 39.733 47.2691 38.4239 48.4473ZM48.373 35.88C49.2894 34.9637 50.4676 34.5709 51.6457 34.5709C54.133 34.5709 56.2276 36.6655 56.2276 39.1527C56.2276 40.3309 55.7039 41.5091 54.9185 42.4255C54.0021 43.3418 52.8239 43.7346 51.6457 43.7346C49.0276 43.7346 47.0639 41.64 47.0639 39.1527C47.0639 37.9746 47.5876 36.7964 48.373 35.88ZM57.4057 49.6255C58.3221 48.7091 59.5003 48.3164 60.6785 48.3164C63.2967 48.3164 65.2603 50.4109 65.2603 52.8982C65.2603 54.0764 64.7367 55.2546 63.9512 56.1709C63.0348 57.0873 61.8566 57.48 60.6785 57.48C58.0603 57.48 56.0966 55.3855 56.0966 52.8982C56.0966 51.72 56.6203 50.5418 57.4057 49.6255ZM41.4348 40.3309C41.3039 40.2 41.3039 39.9382 41.3039 39.8073C41.3039 39.5455 41.4348 39.4145 41.6966 39.2836C42.0894 39.0218 42.4821 39.1527 42.7439 39.5455L46.933 45.96L47.9803 47.6618L48.1112 47.7927C48.373 47.9236 48.7657 48.1855 49.0276 48.3164C49.2894 48.4473 49.5512 48.5782 49.813 48.5782C52.4312 49.3637 54.9185 48.3164 55.9657 47.6618C56.2275 47.9237 56.3585 48.1855 56.6203 48.4473L56.4894 48.5782C55.3112 49.7564 54.6566 51.3273 54.6566 53.0291C54.6566 53.16 54.6566 53.4219 54.6566 53.5528H49.5512C49.5512 53.4219 49.5512 53.16 49.5512 53.0291C49.5512 50.6727 48.2421 48.5782 46.2785 47.4L46.1475 47.2691L41.4348 40.3309ZM47.5875 52.8982C47.5875 54.0764 47.0639 55.2546 46.2785 56.1709C45.3621 57.0873 44.1839 57.48 43.0057 57.48C40.3875 57.48 38.4239 55.3855 38.4239 52.8982C38.4239 51.72 38.9475 50.5418 39.733 49.6255C40.6494 48.7091 41.8275 48.3164 43.0057 48.3164C45.493 48.3164 47.5875 50.4109 47.5875 52.8982Z" fill="#272525"/>
<path d="M35.1512 68.7382C35.2821 68.8691 35.5439 69 35.8057 69H50.2057C50.7294 69 50.9912 68.6073 51.1221 68.2146C51.1221 67.9528 51.253 62.5854 47.8494 59.5745C47.5876 59.3127 47.0639 59.3127 46.8021 59.5745C46.6712 59.7054 43.0057 62.3236 39.6021 59.5745C39.3402 59.3127 38.8166 59.3127 38.5548 59.5745C38.4239 59.7054 35.1512 62.5855 35.1512 68.2146C34.8893 68.3455 35.0203 68.4764 35.1512 68.7382ZM39.0784 61.2763C42.0893 63.24 45.3621 62.3236 47.0639 61.2763C48.7657 63.24 49.1585 65.9891 49.2894 67.2982H36.7221C36.9839 64.0255 38.293 62.0618 39.0784 61.2763Z" fill="#272525"/>
<path d="M64.4748 59.4436C64.3439 59.5746 60.6785 62.1927 57.2748 59.4436C57.013 59.1818 56.4894 59.1818 56.2276 59.4436C56.0967 59.5746 52.8239 62.4545 52.8239 68.0836C52.8239 68.3454 52.9548 68.4764 53.0857 68.7382C53.2167 68.8691 53.4785 69 53.7403 69H68.1403C68.6639 69 68.9257 68.6073 69.0566 68.2146C69.0566 67.9528 69.1876 62.5854 65.7839 59.5745C65.2603 59.1818 64.7366 59.1818 64.4748 59.4436ZM66.9621 67.2982H54.3948C54.6567 64.1564 55.9657 62.1927 56.7512 61.2763C59.7621 63.24 63.0348 62.3236 64.7367 61.2763C66.5694 63.1091 66.9621 65.8582 66.9621 67.2982Z" fill="#272525"/>
<defs>
<filter id="filter0_d_250_8" x="0" y="0" width="105" height="105" filterUnits="userSpaceOnUse" color-interpolation-filters="sRGB">
<feFlood flood-opacity="0" result="BackgroundImageFix"/>
<feColorMatrix in="SourceAlpha" type="matrix" values="0 0 0 0 0 0 0 0 0 0 0 0 0 0 0 0 0 0 127 0" result="hardAlpha"/>
<feOffset dy="1"/>
<feGaussianBlur stdDeviation="5"/>
<feComposite in2="hardAlpha" operator="out"/>
<feColorMatrix type="matrix" values="0 0 0 0 0 0 0 0 0 0 0 0 0 0 0 0 0 0 0.1 0"/>
<feBlend mode="normal" in2="BackgroundImageFix" result="effect1_dropShadow_250_8"/>
<feBlend mode="normal" in="SourceGraphic" in2="effect1_dropShadow_250_8" result="shape"/>
</filter>
</defs>
</svg>
