<svg width="105" height="105" viewBox="0 0 105 105" fill="none" xmlns="http://www.w3.org/2000/svg">
<g filter="url(#filter0_d_250_5)">
<rect x="10" y="9" width="85" height="85" rx="5" fill="white"/>
</g>
<path d="M45.1435 66.7068C44.122 66.2425 43.3791 65.8711 42.9148 65.4996C42.6362 65.3139 42.4505 65.221 42.3576 65.1282C42.2648 65.1282 42.2648 65.0353 42.1719 65.0353C41.7076 64.7567 41.1504 64.7567 40.779 65.221C40.4075 65.5925 40.5004 66.2425 40.9647 66.614C44.5863 69.6784 47.9294 71.35 51.1796 71.8143C51.8296 71.9071 52.4796 72 53.1297 72C54.0583 72 54.9869 71.9071 55.9156 71.7214C57.2156 71.4428 58.4228 70.9785 59.8158 70.4213L60.5587 71.5357C60.7444 71.8143 61.1159 72 61.4873 71.9071C61.8588 71.9071 62.1373 71.6286 62.3231 71.2571L64.4589 65.8711C64.5518 65.5925 64.5518 65.221 64.3661 65.0353C64.1803 64.7567 63.9017 64.571 63.6232 64.571L57.8657 63.921C57.4942 63.921 57.1228 64.0138 56.9371 64.3853C56.7513 64.6639 56.7513 65.1282 56.9371 65.4068L57.4942 66.4282C55.9156 67.3569 54.244 67.914 52.4796 68.0998C49.508 68.2855 46.815 67.4497 45.1435 66.7068ZM58.6086 67.0783C58.8872 66.8926 58.98 66.5211 58.7943 66.2425L58.2371 65.221L62.9731 65.7782L61.2087 70.2356L60.4658 69.1213C60.2801 68.8427 59.9086 68.7498 59.6301 68.9355C58.1443 69.6784 56.8442 70.1427 55.5441 70.4213C54.0583 70.6999 52.6654 70.7928 51.2724 70.5142C49.3223 70.2356 47.3722 69.4927 45.3292 68.1926C47.1865 68.9355 49.7866 69.5856 52.5725 69.307C54.7083 69.0284 56.7513 68.2855 58.6086 67.0783Z" fill="#272525"/>
<path d="M61.9516 38.4766C62.2302 38.6624 62.416 38.7552 62.5088 38.8481C62.6017 38.8481 62.6017 38.9409 62.6945 38.9409C63.1588 39.2195 63.716 39.2195 64.0875 38.7552C64.4589 38.3838 64.3661 37.7337 63.9018 37.3623C60.2801 34.2978 56.9371 32.6263 53.6869 32.162C52.1082 31.8834 50.5295 31.9763 48.9509 32.3477C47.6508 32.6263 46.4436 33.0906 45.0507 33.6478L44.3078 32.5334C44.122 32.2548 43.7506 32.0691 43.3791 32.162C43.0077 32.162 42.7291 32.4406 42.5434 32.812L40.4075 38.198C40.3147 38.4766 40.3147 38.8481 40.5004 39.0338C40.6861 39.3124 40.9647 39.4981 41.2433 39.4981L47.0008 40.1482H47.0936C47.4651 40.1482 47.7437 39.9624 47.9294 39.6838C48.1151 39.4053 48.1151 38.9409 47.9294 38.6624L47.3722 37.6409C48.9509 36.7122 50.6224 36.1551 52.3868 35.9693C55.2655 35.6908 57.9585 36.5265 59.6301 37.2694C60.6516 37.7337 61.4873 38.1052 61.9516 38.4766ZM52.2939 34.6693C50.1581 34.855 48.1151 35.5979 46.165 36.898C45.8864 37.0837 45.7936 37.4551 45.9793 37.7337L46.5364 38.7552L41.8005 38.198L43.5648 33.7406L44.3078 34.855C44.4935 35.1336 44.8649 35.2264 45.1435 35.0407C46.6293 34.2978 47.9294 33.8335 49.2295 33.5549C50.7153 33.2763 52.1082 33.1835 53.5011 33.4621C55.4512 33.7406 57.4014 34.4835 59.4443 35.7836C57.68 35.1336 55.1727 34.4835 52.2939 34.6693Z" fill="#272525"/>
<path d="M40.779 53.6132C42.1719 53.6132 43.5649 53.0561 44.5863 52.0346C45.6078 51.0131 46.165 49.713 46.165 48.2272C46.165 45.2556 43.7506 42.8412 40.779 42.8412C39.386 42.8412 37.9931 43.3984 36.9716 44.4198C35.9501 45.4413 35.3929 46.7414 35.3929 48.2272C35.4858 51.1988 37.9002 53.6132 40.779 53.6132ZM37.9931 45.4413C38.736 44.6984 39.7575 44.327 40.779 44.327C42.9148 44.327 44.6792 46.0914 44.6792 48.2272C44.6792 49.2487 44.3078 50.2702 43.5649 51.0131C42.8219 51.756 41.8005 52.1274 40.779 52.1274C38.6431 52.1274 36.8788 50.363 36.8788 48.2272C36.8788 47.2057 37.2502 46.1842 37.9931 45.4413Z" fill="#272525"/>
<path d="M47.5579 61.1351C47.5579 60.9494 47.6508 56.3991 44.8649 53.799C44.5863 53.5204 44.2149 53.5204 43.9363 53.799C43.9363 53.799 40.779 56.2134 37.8074 53.799C37.5288 53.6132 37.1573 53.6132 36.8787 53.799C36.7859 53.8918 34 56.3063 34 61.1351C34 61.3208 34.0929 61.5066 34.1857 61.5994C34.2786 61.6923 34.4643 61.7851 34.65 61.7851H46.815C47.2793 61.7851 47.5579 61.5066 47.5579 61.1351ZM35.4858 60.3922C35.6715 57.6992 36.8787 56.0277 37.5288 55.2848C40.1289 56.9563 42.8219 56.2134 44.3077 55.2848C45.7935 56.9563 46.0721 59.2779 46.165 60.3922H35.4858Z" fill="#272525"/>
<path d="M60.7444 44.5127C59.7229 45.5342 59.1657 46.8342 59.1657 48.32C59.1657 51.2916 61.5802 53.7061 64.5518 53.7061C65.9447 53.7061 67.3376 53.1489 68.3591 52.1274C69.3806 51.1059 69.9378 49.8058 69.9378 48.32C69.9378 45.3484 67.5234 42.934 64.5518 42.934C63.066 42.934 61.7659 43.4912 60.7444 44.5127ZM68.452 48.2272C68.452 49.2487 68.0805 50.2702 67.3376 51.0131C66.5947 51.756 65.5733 52.1274 64.5518 52.1274C62.4159 52.1274 60.6515 50.363 60.6515 48.2272C60.6515 47.2057 61.023 46.1842 61.7659 45.4413C62.5088 44.6984 63.5303 44.327 64.5518 44.327C66.6876 44.327 68.452 46.0913 68.452 48.2272Z" fill="#272525"/>
<path d="M68.5449 53.799C68.2663 53.5204 67.8948 53.5204 67.6162 53.799C67.6162 53.799 64.4589 56.2134 61.4873 53.799C61.2087 53.6132 60.8373 53.6132 60.5587 53.799C60.4658 53.8918 57.6799 56.3063 57.6799 61.1351C57.6799 61.3208 57.7728 61.5066 57.8657 61.5994C57.9585 61.6923 58.1443 61.7851 58.33 61.7851H70.495C70.8664 61.7851 71.145 61.5066 71.2379 61.1351C71.3307 60.9494 71.4236 56.3991 68.5449 53.799ZM59.1658 60.3922C59.3515 57.6992 60.5587 56.0277 61.2087 55.2848C63.8089 56.9563 66.5019 56.2134 67.9877 55.2848C69.4735 56.9563 69.7521 59.2779 69.8449 60.3922H59.1658Z" fill="#272525"/>
<defs>
<filter id="filter0_d_250_5" x="0" y="0" width="105" height="105" filterUnits="userSpaceOnUse" color-interpolation-filters="sRGB">
<feFlood flood-opacity="0" result="BackgroundImageFix"/>
<feColorMatrix in="SourceAlpha" type="matrix" values="0 0 0 0 0 0 0 0 0 0 0 0 0 0 0 0 0 0 127 0" result="hardAlpha"/>
<feOffset dy="1"/>
<feGaussianBlur stdDeviation="5"/>
<feComposite in2="hardAlpha" operator="out"/>
<feColorMatrix type="matrix" values="0 0 0 0 0 0 0 0 0 0 0 0 0 0 0 0 0 0 0.1 0"/>
<feBlend mode="normal" in2="BackgroundImageFix" result="effect1_dropShadow_250_5"/>
<feBlend mode="normal" in="SourceGraphic" in2="effect1_dropShadow_250_5" result="shape"/>
</filter>
</defs>
</svg>
