<svg width="105" height="105" viewBox="0 0 105 105" fill="none" xmlns="http://www.w3.org/2000/svg">
<g filter="url(#filter0_d_250_4)">
<rect x="10" y="9" width="85" height="85" rx="5" fill="white"/>
</g>
<path d="M70.2281 38.9774C70.2281 38.8701 70.1207 38.8701 70.1207 38.7627C69.7987 38.4407 69.4767 38.3333 69.0473 38.4407C68.6179 38.548 68.4033 38.8701 68.2959 39.1921C68.1886 39.5141 67.9739 39.8362 67.7592 40.0508C67.2225 40.4802 66.5784 40.6949 65.827 40.4802C65.0756 40.2655 64.6462 39.6215 64.5388 38.7627V38.6554C64.7535 37.6893 65.2902 37.1525 66.149 36.9379C66.5784 36.8305 66.9004 36.6158 67.0078 36.1864C67.1151 35.8644 67.0078 35.435 66.7931 35.113L64.1095 32.322C64.0021 32.2147 63.7874 32 63.5727 32C63.4654 32 63.4654 32 63.358 32C63.1433 32 62.8213 32.1073 62.6066 32.322L60.0304 34.5763C59.923 34.2542 59.7083 33.9322 59.3863 33.6102C58.2055 32.322 56.166 32.2147 54.8778 33.3955C53.5897 34.5763 53.5897 36.6158 54.7705 37.904C54.9852 38.226 55.3072 38.4407 55.6292 38.548L53.1603 40.9096C53.053 41.0169 53.053 41.017 53.053 41.017C52.9456 41.2316 52.8383 41.339 52.8383 41.5537C52.8383 41.661 52.8383 41.661 52.8383 41.7684C52.8383 41.9831 52.9456 42.1977 53.1603 42.3051L55.7366 45.2034C55.9513 45.5254 56.3807 45.6328 56.81 45.5254C57.2394 45.4181 57.4541 45.0961 57.5614 44.774C57.7761 44.0226 58.4202 43.4859 59.3863 43.2712H59.4937C60.3524 43.4859 60.9965 44.0226 61.1038 44.774C61.3185 45.4181 61.1038 46.1695 60.5671 46.5989C60.3524 46.8136 60.0304 47.0282 59.601 47.0282C59.1716 47.1356 58.8496 47.3503 58.7422 47.7797C58.6349 48.1017 58.7422 48.5311 58.9569 48.8531C58.9569 48.9605 59.0643 48.9605 59.1716 48.9605L61.6406 51.6441C61.8552 51.8588 62.0699 51.9661 62.2846 51.9661H62.3919H62.4993C62.6066 51.9661 62.714 51.8588 62.8213 51.8588C62.9287 51.8588 62.9287 51.7514 63.036 51.7514L65.7196 49.2825L65.827 49.1751C66.0417 48.8531 66.0417 48.5311 66.0417 48.209C65.9343 47.887 65.7196 47.6723 65.3976 47.565C65.0756 47.4576 64.8609 47.3503 64.6462 47.0282C64.3242 46.5989 64.1095 46.1695 64.2168 45.6328C64.2168 45.0961 64.5389 44.6667 64.8609 44.3446C65.1829 44.0226 65.7196 43.8079 66.2564 43.8079C66.7931 43.8079 67.2225 44.0226 67.5445 44.452C67.7592 44.6667 67.8665 44.8814 67.9738 45.2034C68.0812 45.5254 68.2959 45.7401 68.6179 45.9548C68.94 46.0621 69.262 46.0622 69.584 45.8475C69.584 45.8475 69.6914 45.8475 69.6914 45.7401L72.375 43.1638C72.4824 43.0565 72.5897 42.8418 72.697 42.6271C72.697 42.5198 72.697 42.5198 72.697 42.4124C72.697 42.1978 72.5897 41.8757 72.375 41.7684L70.2281 38.9774ZM69.3694 44.3446C69.262 44.0226 69.0473 43.7006 68.8327 43.4859C68.1886 42.8418 67.4372 42.5198 66.4711 42.4124C65.6123 42.4124 64.7535 42.7345 64.1095 43.3785C63.4654 43.9153 63.036 44.774 62.9287 45.6328C62.8213 46.4915 63.1434 47.3503 63.7874 47.9944C64.0021 48.209 64.3242 48.5311 64.6462 48.6384L62.4993 50.5706L60.3524 48.3164C60.7818 48.209 61.2112 47.9944 61.5332 47.6723C62.392 46.8136 62.8213 45.6328 62.4993 44.452C62.1773 43.2712 61.2112 42.3051 59.8157 41.9831C59.601 41.9831 59.3863 41.8757 59.1716 41.9831C57.8835 42.1977 56.81 42.9492 56.3806 44.0226L54.3411 41.7684L56.81 39.4068C56.9174 39.2994 57.0247 39.1921 57.0247 39.0848C57.1321 38.7627 57.2394 38.548 57.1321 38.226C57.0247 37.904 56.81 37.6893 56.488 37.5819C56.166 37.4746 55.9513 37.2599 55.7366 37.0452C55.0925 36.2938 55.0925 35.113 55.8439 34.4689C56.5953 33.8249 57.7761 33.8249 58.4202 34.5763C58.6349 34.791 58.7422 35.0057 58.8496 35.3277C58.9569 35.6497 59.1716 35.8644 59.4937 35.9718C59.8157 36.0791 60.1377 36.0791 60.3524 35.9718C60.4597 35.9718 60.5671 35.8644 60.6744 35.7571L63.1434 33.5028L65.2903 35.7571C64.2168 36.0791 63.3581 37.0452 63.036 38.3333C63.036 38.548 63.036 38.7627 63.036 38.9774C63.2507 40.3729 64.1095 41.4463 65.2903 41.7684C66.4711 42.1977 67.6518 41.8757 68.5106 41.1243C68.8326 40.8023 69.0473 40.4802 69.262 40.0508L71.4089 42.4124L69.3694 44.3446Z" fill="#272525"/>
<path d="M36.1999 68.9266C36.1999 69.5706 36.7366 70 37.2733 70L49.8326 69.8926H49.94C50.0473 70 50.262 70 50.3694 70H54.2337H54.3411C54.6631 69.8927 54.9852 69.678 55.0925 69.3559C55.1999 69.0339 55.1999 68.7119 55.0925 68.3898C54.8778 67.9604 54.6631 67.209 55.3072 66.2429L55.4145 66.1356C55.8439 65.8136 56.2733 65.7062 56.7027 65.7062C57.7761 65.7062 58.5275 66.565 58.5275 67.5311C58.5275 67.8531 58.4202 68.0678 58.3129 68.3898C58.2055 68.7119 58.2055 69.0339 58.3129 69.3559C58.4202 69.678 58.7422 69.8927 59.0642 70H59.1716H62.8213C63.1433 70 63.358 69.8926 63.5727 69.678C63.7874 69.4633 63.8948 69.1412 63.8948 68.9266V65.0621C63.8948 64.4181 63.4654 63.9887 62.8213 63.9887C62.6066 63.9887 62.392 64.096 62.1773 64.2034C61.8552 64.4181 61.5332 64.5254 61.2111 64.5254C60.5671 64.5254 59.923 64.096 59.601 63.5593C59.2789 62.9153 59.2789 62.0565 59.8157 61.4124L59.923 61.3051C60.3524 60.983 60.7818 60.8757 61.2111 60.8757C61.5332 60.8757 61.8552 60.9831 62.1773 61.1977C62.6066 61.5198 63.1434 61.4124 63.5727 61.0904C63.7874 60.8757 63.8948 60.661 63.8948 60.339V56.4746C63.8948 55.8305 63.358 55.4011 62.8213 55.4011H59.4936C59.601 55.0791 59.7083 54.7571 59.7083 54.3277C59.7083 52.6102 58.2055 51.1073 56.488 51.1073C55.7366 51.1073 55.0925 51.322 54.4484 51.7514C54.5558 51.6441 54.6631 51.4294 54.7705 51.322C55.3072 50.2486 55.1999 48.8531 54.4484 47.7797C54.3411 47.565 54.1264 47.4576 54.0191 47.3503C53.053 46.7062 51.8722 46.4915 50.9061 46.8136V43.4859C50.9061 42.8418 50.3694 42.4124 49.8326 42.4124H46.5049C46.827 41.339 46.7196 40.2655 45.9682 39.1921C45.8609 38.9774 45.6462 38.8701 45.5389 38.7627C44.8948 38.3333 44.1433 38.1187 43.4993 38.1187C42.6405 38.1187 41.7818 38.4407 41.2451 39.0847C40.601 39.7288 40.2789 40.4802 40.2789 41.339C40.2789 41.661 40.3863 42.0904 40.4936 42.4124H37.166C36.8439 42.4124 36.6292 42.5198 36.4146 42.7345C36.1999 42.9491 36.0925 43.1638 36.0925 43.4859V47.3503V47.4576C36.1999 47.9944 36.6292 48.3164 37.166 48.3164C37.3806 48.3164 37.488 48.3164 37.7027 48.209C38.3467 47.887 39.0982 47.9943 39.8496 48.4237L39.9569 48.5311C40.4936 49.2825 40.601 50.0339 40.1716 50.678C39.8496 51.322 39.2055 51.6441 38.5615 51.6441C38.2394 51.6441 38.0247 51.5367 37.7027 51.4294C37.5953 51.322 37.3806 51.322 37.2733 51.322C36.7366 51.322 36.3072 51.6441 36.1999 52.1808V52.2881V55.9378C36.1999 56.0452 36.1999 56.1525 36.3072 56.2599V59.4802C35.2338 59.1582 34.1603 59.2655 33.0869 60.0169C32.8722 60.1243 32.7648 60.339 32.6575 60.4463C31.9061 61.6271 31.7987 62.9152 32.3354 63.9887C32.8722 65.0621 33.9456 65.7062 35.2338 65.7062C35.5558 65.7062 35.9852 65.5989 36.3072 65.4915L36.1999 68.9266ZM54.9852 55.9378C55.1999 55.6158 55.1999 55.1864 54.9852 54.8644C54.7705 54.435 54.5558 53.6836 55.1999 52.7175L55.3072 52.6102C55.7366 52.2881 56.166 52.1808 56.5953 52.1808C57.6688 52.1808 58.4202 53.0395 58.4202 54.0056C58.4202 54.3277 58.3128 54.5424 58.2055 54.8644C57.9908 55.1864 58.0982 55.6158 58.2055 55.9378C58.4202 56.2599 58.7422 56.4746 59.1716 56.4746H62.6066V59.6949C61.5332 59.2655 60.245 59.3729 59.1716 60.1243C58.9569 60.2316 58.8496 60.4463 58.7422 60.5537C57.9908 61.7345 57.8835 63.0226 58.4202 64.096C58.9569 65.1695 60.0304 65.8135 61.3185 65.8135C61.7479 65.8135 62.2846 65.7062 62.6066 65.4915V68.7119H59.601C59.7083 68.3898 59.8157 68.0678 59.8157 67.6384C59.8157 65.9209 58.3128 64.4181 56.5953 64.4181C55.8439 64.4181 55.1999 64.6328 54.4484 65.0621C54.2337 65.1695 54.1264 65.3842 54.0191 65.4915C53.375 66.4576 53.1603 67.6384 53.4823 68.6045H50.3694V65.1695C50.3694 64.5254 49.8326 64.096 49.2959 64.096C49.0812 64.096 48.9739 64.096 48.7592 64.2034C48.5445 64.3107 48.2224 64.4181 47.9004 64.4181C47.2563 64.4181 46.6123 63.9887 46.2902 63.452C45.9682 62.8079 45.9682 61.9491 46.5049 61.3051L46.6123 61.1977C47.3637 60.661 48.1151 60.5537 48.7592 60.983C49.1886 61.1977 49.7253 61.0904 50.0473 60.7684C50.262 60.5537 50.3694 60.339 50.3694 60.0169V56.5819H53.8044C54.4484 56.4746 54.7705 56.2599 54.9852 55.9378ZM53.697 55.0791H51.0134V52.6102C51.3354 52.7175 51.6575 52.8249 52.0868 52.8249C52.8383 52.8249 53.5897 52.5028 54.1264 52.0735C53.4824 53.0396 53.2676 54.113 53.697 55.0791ZM38.4541 53.0395C39.6349 53.0395 40.7083 52.3955 41.2451 51.322C41.7818 50.2486 41.6744 48.8531 40.923 47.7797C40.8157 47.565 40.601 47.4576 40.4936 47.3503C39.5275 46.7062 38.3468 46.4915 37.3807 46.8136V43.7006H40.8157C41.245 43.7006 41.5671 43.4859 41.7818 43.1638C41.9965 42.8418 41.9965 42.4124 41.7818 42.0904C41.6744 41.8757 41.5671 41.5537 41.5671 41.2316C41.5671 40.6949 41.7818 40.2655 42.1038 39.9435C42.4258 39.6215 42.9626 39.4068 43.392 39.4068C43.8213 39.4068 44.2507 39.5141 44.6801 39.8362L44.7874 39.9435C45.3241 40.6949 45.4315 41.4463 45.0021 42.0904C44.7874 42.4124 44.8948 42.8418 45.0021 43.1638C45.2168 43.4859 45.5388 43.7006 45.9682 43.7006H49.4032V47.1356C49.4032 47.7797 49.94 48.209 50.4767 48.209C50.6914 48.209 50.7987 48.209 51.0134 48.1017C51.6575 47.7797 52.4089 47.887 53.1603 48.3164L53.2676 48.4237C53.8044 49.1751 53.9117 49.9265 53.4823 50.5706C53.1603 51.2147 52.5162 51.5367 51.8722 51.5367C51.5501 51.5367 51.3354 51.4294 51.0134 51.322C50.584 51.1073 50.0473 51.2147 49.7253 51.5367C49.5106 51.7514 49.4032 52.0734 49.4032 52.2881V55.4011C49.2959 55.5085 49.2959 55.5085 49.1886 55.6158C49.1886 55.6158 49.1886 55.7232 49.0812 55.7232H45.7535C45.6462 55.7232 45.4315 55.6158 45.4315 55.5085C45.3242 55.4011 45.3242 55.1864 45.4315 55.0791C45.9682 54.113 45.9682 53.0395 45.2168 51.9661C45.1095 51.8588 45.1095 51.7514 45.0021 51.7514C44.4654 51.4294 43.9287 51.2147 43.2846 51.2147C42.6405 51.2147 41.9965 51.4294 41.4597 51.9661C41.0304 52.5028 40.7083 53.0395 40.7083 53.791C40.7083 54.2203 40.8157 54.7571 41.1377 55.1864C41.2451 55.2938 41.2451 55.5085 41.1377 55.6158C41.0304 55.7232 40.923 55.8305 40.8157 55.8305H37.166V52.8249C37.81 52.9322 38.1321 53.0395 38.4541 53.0395ZM35.1264 64.4181C34.4823 64.4181 33.8383 64.096 33.5162 63.452C33.1942 62.8079 33.1942 61.9491 33.7309 61.3051L33.8383 61.1977C34.5897 60.661 35.3411 60.5537 35.9852 60.983C36.3072 61.1977 36.7366 61.0904 37.0586 60.983C37.3806 60.7684 37.5953 60.4463 37.5953 60.0169V57.226H41.2451C41.8891 57.226 42.4259 56.904 42.7479 56.2599C43.0699 55.7232 43.0699 54.9718 42.6405 54.435C42.5332 54.2203 42.4258 54.0056 42.4258 53.791C42.4258 53.4689 42.5332 53.1469 42.7479 52.9322C43.1773 52.5028 43.8213 52.5028 44.4654 52.8249C44.6801 53.1469 45.0021 53.791 44.5727 54.3277C44.2507 54.8644 44.2507 55.6158 44.4654 56.1525C44.7874 56.6893 45.3242 57.0113 45.9682 57.0113H49.1886V59.4802C48.1151 59.1582 47.0417 59.2655 45.9682 60.0169C45.7535 60.1243 45.6462 60.339 45.5389 60.4463C44.7874 61.6271 44.6801 62.9152 45.2168 63.9887C45.7535 65.0621 46.827 65.7062 48.1151 65.7062C48.4371 65.7062 48.8665 65.5989 49.1886 65.4915V68.3898L49.0812 68.4972L37.3807 68.6045V65.1695C37.3807 64.7401 37.166 64.4181 36.8439 64.2034C36.5219 63.9887 36.0925 63.9887 35.7705 64.2034C35.6631 64.4181 35.4484 64.4181 35.1264 64.4181Z" fill="#272525"/>
<defs>
<filter id="filter0_d_250_4" x="0" y="0" width="105" height="105" filterUnits="userSpaceOnUse" color-interpolation-filters="sRGB">
<feFlood flood-opacity="0" result="BackgroundImageFix"/>
<feColorMatrix in="SourceAlpha" type="matrix" values="0 0 0 0 0 0 0 0 0 0 0 0 0 0 0 0 0 0 127 0" result="hardAlpha"/>
<feOffset dy="1"/>
<feGaussianBlur stdDeviation="5"/>
<feComposite in2="hardAlpha" operator="out"/>
<feColorMatrix type="matrix" values="0 0 0 0 0 0 0 0 0 0 0 0 0 0 0 0 0 0 0.1 0"/>
<feBlend mode="normal" in2="BackgroundImageFix" result="effect1_dropShadow_250_4"/>
<feBlend mode="normal" in="SourceGraphic" in2="effect1_dropShadow_250_4" result="shape"/>
</filter>
</defs>
</svg>
