<svg width="105" height="105" viewBox="0 0 105 105" fill="none" xmlns="http://www.w3.org/2000/svg">
<g filter="url(#filter0_d_250_6)">
<rect x="10" y="9" width="85" height="85" rx="5" fill="white"/>
</g>
<path d="M64.8947 37.5263C61.6316 34.5789 57.421 33 53 33C51.4211 33 49.9474 33.2105 48.4737 33.5263C48.0526 33.6316 47.5263 33.8421 47 33.9474C45.421 34.4737 43.9474 35.3158 42.579 36.2632C42.2632 36.4737 41.8421 36.7895 41.5263 37.1053C37.3158 40.5789 35 45.6316 35 51C35 57.6316 38.5789 63.6316 44.3684 66.7895C44.6842 66.8947 45 67.1053 45.3158 67.3158C47.7369 68.4737 50.2632 69 52.8947 69C54.6842 69 56.3684 68.7895 58.0526 68.2631H58.1579C58.2631 68.2631 58.2632 68.2631 58.3684 68.2631C58.6842 68.1579 58.8947 68.0526 59.1052 67.9474C61.9474 66.8947 64.4737 65.1052 66.4737 62.7895C66.6842 62.5789 66.8947 62.2632 67.1052 62.0526C67.2105 61.9474 67.2105 61.8421 67.2105 61.7368C69.5263 58.5789 70.7895 54.8947 70.7895 51C70.7895 46.2632 69 41.8421 65.7368 38.4737C65.5263 38.1579 65.2105 37.8421 64.8947 37.5263ZM53 34.3684C57 34.3684 60.8947 35.8421 63.9474 38.4737C63.7368 38.4737 63.421 38.4737 63.3158 38.4737C62.8947 38.3684 62.4737 38.2631 62.0526 38.0526C60.1579 37.5263 58.4737 37 56.3684 37.6316C55.8421 37.8421 55.421 37.9474 55 38.1579C54.4737 38.3684 54.0526 38.5789 53.5263 38.6842C53.4211 38.6842 53.2105 38.6842 53.1053 38.6842C52.579 38.6842 52.0526 38.4737 51.4211 38.0526C50.7895 37.6316 50.3684 37 49.9474 36.2632C49.6316 35.7368 49.3158 35.2105 48.8947 34.8947C50.1579 34.5789 51.5263 34.3684 53 34.3684ZM45.2105 65.7368C45.1053 65.7368 45.1053 65.6316 45.2105 65.7368C39.7369 62.7895 36.3684 57.2105 36.3684 51.1053C36.3684 46.1579 38.579 41.4211 42.4737 38.2632C42.6842 38.0526 43 37.8421 43.2105 37.6316C44.1579 37.6316 44.4737 37.7368 44.6842 39.1052C44.7895 39.421 44.6842 39.8421 44.6842 40.1579C44.6842 40.6842 44.579 41.2105 44.7895 41.7368C44.8948 42.1579 45.2105 42.4737 45.421 42.6842C45.7368 43 45.9474 43.3158 46.0526 43.6316C46.1579 45 44.6842 45.3158 42.7895 45.6316C42.5789 45.6316 42.4737 45.7368 42.2631 45.7368C41.7368 45.8421 41.3158 45.9474 41 46.0526C40.0526 46.4737 39.5263 47 39.2105 47.7368C38.7895 49 39.6316 50.2631 40.4737 51.2105C41.6316 52.5789 42.2632 54.6842 41.9474 56.0526C41.8421 56.3684 41.7369 56.7895 41.6316 57.1052C41.2105 58.2631 40.7895 59.5263 42.1579 60.6842C42.579 61.1052 43.1053 61.3158 43.421 61.5263C43.6316 61.6316 43.8421 61.7368 44.0526 61.8421C44.4737 62.1579 44.7895 62.4737 45 63.2105C45.2105 64.1579 45.2105 64.8947 45.2105 65.7368ZM65.6316 61.9474C63.7368 64.0526 61.421 65.7368 58.7895 66.6842C58.6842 66.6842 58.5789 66.7895 58.5789 66.7895C57.2105 64.8947 55 62.6842 52.4737 61.9474C51.4211 61.6316 51.1053 61.3158 50.579 60.579C50.3684 60.3684 50.2632 60.1579 50.0526 59.8421C49.3158 59 48.5789 58.6842 47.7368 58.2632C47.5263 58.1579 47.3158 58.0526 47.1053 57.9474C45.7368 57.3158 45.2105 56.1579 45.421 54.6842C45.8421 52.3684 48.1579 51.6316 50.0526 51.6316C50.1579 51.6316 50.2632 51.6316 50.3684 51.6316C50.8947 51.6316 51.3158 51.7368 51.7368 51.8421C52.8947 52.0526 53.9474 52.2632 55.3158 51C56.2632 50.1579 56.3684 49.2105 56.5789 48.2632C56.6842 47.7368 56.7895 47.2105 57 46.6842C57.2105 46.2632 57.5263 45.6316 57.9474 45.421C58.2632 45.2105 58.579 45.2105 58.8947 45.2105C59.1053 45.2105 59.421 45.3158 59.7368 45.2105C60.2631 45 60.6842 44.579 61 44.1579C61.4211 43.6316 61.8421 43.1053 62.7895 43C63.9473 42.8947 66.2632 43.6316 66.8947 44.7895C67.2105 45.3158 67.1053 45.8421 66.6842 46.3684C66.3684 46.7895 66.0526 47.1053 65.7368 47.4211C65.1053 47.9474 64.4737 48.4737 64.3684 49.7368C64.1579 51 64.6842 51.421 65.1053 51.9474C65.421 52.2632 65.6316 52.4737 65.8421 53C66.0526 53.6316 65.8421 54.3684 65.6316 55.2105C65.421 55.9474 65.1053 56.6842 65.3158 57.4211C65.3158 57.6316 65.421 57.8421 65.421 58.1579C65.421 58.6842 65.9474 60.2632 66.3684 61.5263C65.8421 61.6316 65.7368 61.7368 65.6316 61.9474ZM66.8947 60.0526C66.579 59.1053 66.3684 58.2631 66.3684 58.0526C66.3684 57.7368 66.3684 57.5263 66.2632 57.2105C66.1579 56.7895 66.3684 56.2632 66.5789 55.6316C66.8947 54.6842 67.2105 53.7368 66.7895 52.5789C66.4737 51.8421 66.1579 51.4211 65.7368 51.1053C65.3158 50.6842 65.3158 50.579 65.3158 50.0526C65.4211 49.3158 65.7368 49 66.2632 48.5789C66.3684 48.4737 66.3684 48.4737 66.4737 48.3684C66.5789 48.2632 66.6842 48.1579 66.7895 48.0526C66.8947 47.9474 67 47.8421 67.1052 47.7368C67.2105 47.6316 67.3158 47.5263 67.4211 47.3158C68.3684 45.9474 67.9474 44.8947 67.6316 44.2632C67.3158 43.7369 66.7895 43.2105 66.2632 42.8947C65 42.0526 63.3158 41.6316 62.2631 41.7368C60.6842 41.8421 59.9474 42.7895 59.4211 43.421C59.2105 43.7368 59 43.9474 58.7895 44.0526C58.7895 44.0526 58.6842 44.0526 58.5789 44.0526C58.1579 43.9474 57.5263 43.8421 56.6842 44.4737C56.0526 44.8947 55.5263 45.7369 55.3158 46.3684C55 47 54.8947 47.6316 54.7895 48.2632C54.6842 49.1053 54.5789 49.6316 53.9474 50.1579C53.1053 50.8947 52.6842 50.8947 51.5263 50.6842C51.1053 50.5789 50.579 50.4737 49.9474 50.4737C47.4211 50.3684 44.2632 51.3158 43.6316 54.6842C43.3158 56.5789 43.9474 58.1579 45.421 59.1052C45.6316 59.2105 45.8421 59.4211 46.1579 59.5263C46.3684 59.6316 46.579 59.7368 46.7895 59.8421C47.2105 60.0526 47.6316 60.2632 47.9474 60.4737C48.1579 60.5789 48.3684 60.7895 48.5789 61C48.7895 61.2105 49 61.4211 49.1053 61.6316C49.5263 62.1579 49.8421 62.5789 50.3684 62.8947C50.6842 63.1052 51.1052 63.3158 51.7368 63.5263C52.3684 63.7368 53 64.0526 53.6316 64.4737C54.7895 65.2105 55.9474 66.3684 56.7895 67.4211C55.4211 67.7368 54.0526 67.9474 52.6842 67.9474C50.3684 67.9474 48.1579 67.5263 46.1579 66.5789C46.1579 66.4737 46.1579 66.2631 46.2632 66.1579C46.2632 66.0526 46.2632 65.8421 46.2632 65.7368V65.6316C46.2632 65.5263 46.2632 65.4211 46.2632 65.3158C46.2632 65.2105 46.2632 65.2105 46.2632 65.1053C46.2632 65 46.2632 64.8947 46.2632 64.7895C46.2632 64.6842 46.2632 64.6842 46.2632 64.5789C46.2632 64.4737 46.2632 64.3684 46.2632 64.2632C46.2632 64.1579 46.2632 64.1579 46.2632 64.0526C46.2632 63.9474 46.2632 63.8421 46.1579 63.7368V63.6316C46.1579 63.5263 46.0526 63.3158 46.0526 63.2105C45.6316 61.6316 44.6842 61.1052 43.8421 60.6842C43.5263 60.4737 43.1053 60.3684 42.7895 60.0526C42.1579 59.5263 42.2632 59.2105 42.6842 57.9474C42.7895 57.5263 43 57.1053 43 56.6842C43.4211 54.7895 42.6842 52.3684 41.2105 50.6842C40.4737 49.8421 40.0526 49 40.2632 48.4737V48.3684C40.3684 48.2632 40.3684 48.1579 40.4737 48.0526C40.579 47.9474 40.7895 47.8421 40.8947 47.7368C41 47.7368 41 47.6316 41.1053 47.6316C41.4211 47.5263 42.0526 47.4211 42.6842 47.3158C44.3684 47 47.2105 46.4737 47 43.8421C46.8947 43 46.4737 42.4737 46.0526 42.0526C45.8421 41.8421 45.7368 41.7368 45.6316 41.5263C45.5263 41.2105 45.5263 40.8947 45.6316 40.4737C45.6316 40.0526 45.7368 39.6316 45.6316 39.1052C45.6316 39 45.5263 38.7895 45.5263 38.6842V38.5789C45.5263 38.4737 45.5263 38.3684 45.421 38.3684V38.2632C45.421 38.1579 45.4211 38.1579 45.3158 38.0526V37.9474C45.3158 37.8421 45.2105 37.8421 45.2105 37.7368V37.6316C45.2105 37.5263 45.1053 37.4211 45.1053 37.4211C45.1053 37.3158 45 37.3158 45 37.2105C45 37.2105 45 37.2105 44.8947 37.1053L44.7895 37C44.7895 37 44.7895 37 44.6842 36.8947L44.5789 36.7895C45.3158 36.3684 46.1579 35.9474 47 35.6316H47.1053C47.7368 35.8421 48.0526 36.4737 48.5789 37.2105C49 37.9474 49.5263 38.7895 50.3684 39.4211C51.2105 40.0526 52.0526 40.2631 52.8947 40.2631C53.8421 40.2631 54.579 39.9474 55.3158 39.5263L55 38.8947L55.3158 39.5263C55.7369 39.3158 56.0526 39.2105 56.5789 39C58.2631 38.4737 59.6316 38.8947 61.421 39.4211C61.8421 39.5263 62.2631 39.7368 62.7895 39.8421C62.8947 39.8421 63 39.8421 63.1053 39.9474H63.2105C63.3158 39.9474 63.3158 39.9474 63.421 39.9474H63.5263C63.6316 39.9474 63.6316 39.9474 63.7368 39.9474H63.8421C63.9473 39.9474 63.9474 39.9474 64.0526 39.9474H64.1579C64.2632 39.9474 64.2631 39.9474 64.3684 39.9474H64.4737C64.5789 39.9474 64.5789 39.9474 64.6842 39.9474H64.7895C64.8947 39.9474 64.8947 39.9474 65 39.9474H65.1053C67.9474 43 69.5263 47 69.5263 51.3158C69.6316 54.2631 68.6842 57.3158 66.8947 60.0526Z" fill="#272525"/>
<path d="M61.8421 53.3158C60.4737 53 59.1053 53.421 58.2632 54.4737C57.4211 53.421 55.9474 53 54.6842 53.3158C53.4211 53.6315 52.579 54.7895 52.579 56.1579C52.579 59.3158 57.8421 63 58.0526 63.1052L58.2632 63.3158L58.4737 63.1052C58.6842 63 63.9474 59.2105 63.9474 56.1579C63.9474 54.6842 63.1053 53.6315 61.8421 53.3158ZM58.2632 62.1579C56.6842 61 53.4211 58.1579 53.4211 56.1579C53.4211 55.2105 53.9474 54.4737 54.8947 54.1579C55.1053 54.1579 55.3158 54.0526 55.5263 54.0526C56.3684 54.0526 57.3158 54.4737 57.8421 55.421L58.2632 56.1579L58.6842 55.421C59.3158 54.2631 60.6842 53.8421 61.6316 54.1579C62.0527 54.2631 63.1053 54.6842 63.1053 56.1579C63.1053 58.1579 59.8421 61 58.2632 62.1579Z" fill="#272525"/>
<defs>
<filter id="filter0_d_250_6" x="0" y="0" width="105" height="105" filterUnits="userSpaceOnUse" color-interpolation-filters="sRGB">
<feFlood flood-opacity="0" result="BackgroundImageFix"/>
<feColorMatrix in="SourceAlpha" type="matrix" values="0 0 0 0 0 0 0 0 0 0 0 0 0 0 0 0 0 0 127 0" result="hardAlpha"/>
<feOffset dy="1"/>
<feGaussianBlur stdDeviation="5"/>
<feComposite in2="hardAlpha" operator="out"/>
<feColorMatrix type="matrix" values="0 0 0 0 0 0 0 0 0 0 0 0 0 0 0 0 0 0 0.1 0"/>
<feBlend mode="normal" in2="BackgroundImageFix" result="effect1_dropShadow_250_6"/>
<feBlend mode="normal" in="SourceGraphic" in2="effect1_dropShadow_250_6" result="shape"/>
</filter>
</defs>
</svg>
