<svg width="105" height="105" viewBox="0 0 105 105" fill="none" xmlns="http://www.w3.org/2000/svg">
<g filter="url(#filter0_d_250_9)">
<rect x="10" y="9" width="85" height="85" rx="5" fill="white"/>
</g>
<path d="M45.2 62.6C45.2 62.8 45.3 62.9 45.4 63.1C45.5 63.2 45.7 63.3 45.9 63.3H60.6C61 63.3 61.3 63 61.3 62.7C61.3 62.6 61.3 61.7 61.1 60.4H71.8C72.2 60.4 72.5 60.1 72.5 59.8C72.5 59.6 72.6 54.2 69.3 51.1C69.1 50.9 68.7 50.9 68.4 51.1C68.4 51.1 64.4 54.1 60.8 51.1C60.5 50.9 60.2 50.9 59.9 51.1C59.8 51.2 58.7 52.1 57.8 54C57.6 53.9 57.3 53.9 57.1 54.1C56.9 54.2 53.1 57.1 49.5 54.1C49.3 54 49.1 53.9 48.9 54C48.4 53 47.8 52 46.9 51.2C46.7 51 46.3 51 46 51.2C46 51.2 42 54.2 38.4 51.2C38.1 51 37.8 51 37.5 51.2C37.4 51.3 34.1 54.2 34 59.9C34 60.1 34.1 60.2 34.2 60.4C34.3 60.5 34.5 60.6 34.7 60.6H45.4C45.3 61 45.2 61.8 45.2 62.6ZM60.4 52.4C63.9 54.8 67.4 53.1 68.7 52.4C70.7 54.5 71.1 57.7 71.1 59.1H60.8C60.5 57.7 59.9 56.2 58.8 54.9C59.4 53.6 60 52.8 60.4 52.4ZM49.2 55.3C52.7 57.7 56.2 56 57.5 55.3C59.5 57.4 59.9 60.6 59.9 62H46.6C46.8 58.4 48.4 56.2 49.2 55.3ZM35.5 59C35.7 55.4 37.4 53.2 38.1 52.3C41.6 54.7 45.1 53 46.4 52.3C47.1 53 47.6 53.9 47.9 54.8C47.2 55.6 46.3 57 45.7 59H35.5Z" fill="#272525"/>
<path d="M35.8 44.2C35.8 47.7 38.6 50.5 42.1 50.5C43.8 50.5 45.4 49.8 46.5 48.7C46.7 48.5 46.8 48.4 47 48.2C47.5 51.2 50.1 53.5 53.2 53.5C54.9 53.5 56.5 52.8 57.6 51.7C58.6 50.7 59.2 49.4 59.4 48.1C60.5 49.6 62.4 50.6 64.4 50.6C66.1 50.6 67.7 49.9 68.8 48.8C70 47.6 70.6 46 70.6 44.4C70.6 40.9 67.8 38.1 64.3 38.1C62.6 38.1 61 38.8 59.9 39.9C58.9 40.9 58.3 42.2 58.1 43.5C57 42 55.1 41 53.1 41C51.4 41 49.8 41.7 48.7 42.8C48.5 43 48.4 43.1 48.2 43.3C47.7 40.3 45.1 38 42 38C40.3 38 38.7 38.7 37.6 39.8C36.5 40.9 35.8 42.5 35.8 44.2ZM60.9 40.6C61.8 39.7 63.1 39.1 64.4 39.1C67.1 39.1 69.4 41.3 69.4 44.1C69.4 45.4 68.9 46.7 67.9 47.6C67 48.5 65.7 49.1 64.4 49.1C61.7 49.1 59.4 46.9 59.4 44.1C59.5 42.8 60 41.6 60.9 40.6ZM49.7 43.6C50.6 42.7 51.9 42.1 53.2 42.1C55.9 42.1 58.2 44.3 58.2 47.1C58.2 48.4 57.7 49.7 56.7 50.6C55.8 51.5 54.5 52.1 53.2 52.1C50.5 52.1 48.2 49.9 48.2 47.1C48.3 45.8 48.8 44.5 49.7 43.6ZM42.1 39.2C44.8 39.2 47.1 41.4 47.1 44.2C47.1 45.5 46.6 46.8 45.6 47.7C44.7 48.6 43.4 49.2 42.1 49.2C39.4 49.2 37.1 47 37.1 44.2C37.1 42.9 37.6 41.6 38.6 40.7C39.6 39.7 40.8 39.2 42.1 39.2Z" fill="#272525"/>
<defs>
<filter id="filter0_d_250_9" x="0" y="0" width="105" height="105" filterUnits="userSpaceOnUse" color-interpolation-filters="sRGB">
<feFlood flood-opacity="0" result="BackgroundImageFix"/>
<feColorMatrix in="SourceAlpha" type="matrix" values="0 0 0 0 0 0 0 0 0 0 0 0 0 0 0 0 0 0 127 0" result="hardAlpha"/>
<feOffset dy="1"/>
<feGaussianBlur stdDeviation="5"/>
<feComposite in2="hardAlpha" operator="out"/>
<feColorMatrix type="matrix" values="0 0 0 0 0 0 0 0 0 0 0 0 0 0 0 0 0 0 0.1 0"/>
<feBlend mode="normal" in2="BackgroundImageFix" result="effect1_dropShadow_250_9"/>
<feBlend mode="normal" in="SourceGraphic" in2="effect1_dropShadow_250_9" result="shape"/>
</filter>
</defs>
</svg>
