<svg width="18" height="12" viewBox="0 0 18 12" fill="none" xmlns="http://www.w3.org/2000/svg">
<path d="M17.6471 5.9999C17.6471 5.82312 17.5756 5.65358 17.4483 5.52857C17.321 5.40357 17.1484 5.33334 16.9684 5.33334H2.31924L6.59061 1.13933C6.71804 1.01417 6.78963 0.844411 6.78963 0.667404C6.78963 0.490398 6.71804 0.320641 6.59061 0.195478C6.46318 0.0703157 6.29035 1.3188e-09 6.11013 0C5.92992 -1.3188e-09 5.75709 0.0703157 5.62965 0.195478L0.200514 5.52798C0.136988 5.58971 0.0865571 5.66321 0.0521392 5.74422C0.0177214 5.82522 0 5.91213 0 5.9999C0 6.08768 0.0177214 6.17458 0.0521392 6.25559C0.0865571 6.33659 0.136988 6.41009 0.200514 6.47183L5.62965 11.8043C5.75691 11.9295 5.92957 11.9999 6.10965 12C6.28974 12.0001 6.4625 11.93 6.58993 11.805C6.71736 11.68 6.78903 11.5104 6.78915 11.3335C6.78928 11.1567 6.71786 10.987 6.59061 10.8618L2.31924 6.66646H16.9684C17.1484 6.66646 17.321 6.59624 17.4483 6.47123C17.5756 6.34623 17.6471 6.17669 17.6471 5.9999Z" fill="#1186F2"/>
</svg>
